<?xml version="1.0" standalone="no"?>
<!DOCTYPE svg PUBLIC "-//W3C//DTD SVG 1.1//EN" "http://www.w3.org/Graphics/SVG/1.1/DTD/svg11.dtd" >
<svg xmlns="http://www.w3.org/2000/svg">
<metadata>Generated by IcoMoon</metadata>
<defs>
<font id="icon" horiz-adv-x="1024">
<font-face units-per-em="1024" ascent="960" descent="-64" />
<missing-glyph horiz-adv-x="1024" />
<glyph unicode="&#x20;" horiz-adv-x="512" d="" />
<glyph unicode="&#xe900;" glyph-name="full-screen" d="M632.996 115.845h232.736c7.762 0 14.94-4.129 18.82-10.831 3.886-6.696 3.886-14.954 0-21.655-3.881-6.696-11.059-10.825-18.82-10.825h-232.736c-7.767 0-14.941 4.129-18.827 10.825-3.881 6.701-3.881 14.959 0 21.655 3.886 6.702 11.060 10.831 18.827 10.831zM844.155 94.271v232.736c0 7.762 4.129 14.94 10.831 18.82 6.696 3.886 14.954 3.886 21.655 0 6.696-3.881 10.825-11.059 10.825-18.82v-232.736c0-7.767-4.129-14.941-10.825-18.827-6.701-3.881-14.959-3.881-21.655 0-6.702 3.886-10.831 11.060-10.831 18.827zM567.939 412.599c5.766 0.005 11.298-2.28 15.369-6.344l282.815-281.789c5.488-5.468 7.632-13.443 5.622-20.913-2.005-7.474-7.866-13.308-15.363-15.311-7.503-2.002-15.503 0.135-20.996 5.601l-282.815 281.789c-6.24 6.186-8.109 15.51-4.742 23.609 3.369 8.099 11.309 13.378 20.109 13.358zM356.871 780.155h-232.736c-7.762 0-14.94 4.129-18.82 10.831-3.886 6.696-3.886 14.954 0 21.655 3.881 6.696 11.059 10.825 18.82 10.825h232.736c7.767 0 14.941-4.129 18.827-10.825 3.881-6.701 3.881-14.959 0-21.655-3.886-6.702-11.060-10.831-18.827-10.831zM145.711 801.729v-232.736c0-7.762-4.129-14.94-10.831-18.82-6.696-3.886-14.954-3.886-21.655 0-6.696 3.881-10.825 11.059-10.825 18.82v232.736c0 7.767 4.129 14.941 10.825 18.827 6.701 3.881 14.959 3.881 21.655 0 6.702-3.886 10.831-11.060 10.831-18.827zM421.927 483.401c-5.766-0.005-11.298 2.28-15.369 6.344l-282.815 281.789c-5.488 5.468-7.632 13.443-5.622 20.913 2.005 7.474 7.866 13.308 15.363 15.311 7.503 2.002 15.503-0.135 20.996-5.601l282.815-281.789c6.24-6.186 8.109-15.51 4.742-23.609-3.369-8.099-11.309-13.378-20.109-13.358z" />
<glyph unicode="&#xe901;" glyph-name="about" d="M512 55.467c-216.79 0-392.533 175.743-392.533 392.533s175.743 392.533 392.533 392.533c216.79 0 392.533-175.743 392.533-392.533s-175.743-392.533-392.533-392.533zM512 89.6c197.939 0 358.4 160.461 358.4 358.4s-160.461 358.4-358.4 358.4c-197.939 0-358.4-160.461-358.4-358.4s160.461-358.4 358.4-358.4zM529.067 388.267c0-9.426-7.641-17.067-17.067-17.067s-17.067 7.641-17.067 17.067v273.067c0 9.426 7.641 17.067 17.067 17.067s17.067-7.641 17.067-17.067v-273.067zM512 234.667c-18.851 0-34.133 15.282-34.133 34.133s15.282 34.133 34.133 34.133c18.851 0 34.133-15.282 34.133-34.133s-15.282-34.133-34.133-34.133z" />
<glyph unicode="&#xe902;" glyph-name="add" d="M529.067 465.067h345.59c9.426 0 17.067-7.641 17.067-17.067s-7.641-17.067-17.067-17.067h-345.59v-345.527c0-9.426-7.641-17.067-17.067-17.067s-17.067 7.641-17.067 17.067v345.527h-345.59c-9.426 0-17.067 7.641-17.067 17.067s7.641 17.067 17.067 17.067h345.59v345.527c0 9.426 7.641 17.067 17.067 17.067s17.067-7.641 17.067-17.067v-345.527z" />
<glyph unicode="&#xe903;" glyph-name="circle" d="M512.001 806.496c-197.666 0-358.497-160.831-358.497-358.495 0-197.666 160.831-358.497 358.497-358.497 197.664 0 358.495 160.831 358.495 358.497 0 197.664-160.831 358.495-358.495 358.495zM512.001 127.466c-176.754 0-320.535 143.784-320.535 320.535s143.782 320.533 320.535 320.533c176.752 0 320.533-143.782 320.533-320.533s-143.782-320.535-320.533-320.535z" />
<glyph unicode="&#xe904;" glyph-name="out-full" d="M800.604 370.555h-232.736c-7.762 0-14.94 4.129-18.82 10.831-3.886 6.696-3.886 14.954 0 21.655 3.881 6.696 11.059 10.825 18.82 10.825h232.736c7.767 0 14.941-4.129 18.827-10.825 3.881-6.701 3.881-14.959 0-21.655-3.886-6.702-11.060-10.831-18.827-10.831zM589.445 392.129v-232.736c0-7.762-4.129-14.94-10.831-18.82-6.696-3.886-14.954-3.886-21.655 0-6.696 3.881-10.825 11.059-10.825 18.82v232.736c0 7.767 4.129 14.941 10.825 18.827 6.701 3.881 14.959 3.881 21.655 0 6.702-3.886 10.831-11.060 10.831-18.827zM865.661 73.801c-5.766-0.005-11.298 2.28-15.369 6.344l-282.815 281.789c-5.488 5.468-7.632 13.443-5.622 20.913 2.005 7.474 7.866 13.308 15.363 15.311 7.503 2.002 15.503-0.135 20.996-5.601l282.815-281.789c6.24-6.186 8.109-15.51 4.742-23.609-3.369-8.099-11.309-13.378-20.109-13.358zM189.263 525.445h232.736c7.762 0 14.94-4.129 18.82-10.831 3.886-6.696 3.886-14.954 0-21.655-3.881-6.696-11.059-10.825-18.82-10.825h-232.736c-7.767 0-14.941 4.129-18.827 10.825-3.881 6.701-3.881 14.959 0 21.655 3.886 6.702 11.060 10.831 18.827 10.831zM400.422 503.871v232.736c0 7.762 4.129 14.94 10.831 18.82 6.696 3.886 14.954 3.886 21.655 0 6.696-3.881 10.825-11.059 10.825-18.82v-232.736c0-7.767-4.129-14.941-10.825-18.827-6.701-3.881-14.959-3.881-21.655 0-6.702 3.886-10.831 11.060-10.831 18.827zM124.206 822.199c5.766 0.005 11.298-2.28 15.369-6.344l282.815-281.789c5.488-5.468 7.632-13.443 5.622-20.913-2.005-7.474-7.866-13.308-15.363-15.311-7.503-2.002-15.503 0.135-20.996 5.601l-282.815 281.789c-6.24 6.186-8.109 15.51-4.742 23.609 3.369 8.099 11.309 13.378 20.109 13.358z" />
<glyph unicode="&#xe905;" glyph-name="access-rules" d="M744.727 122.182h108.606c8.569 0 15.515-6.946 15.515-15.515s-6.946-15.515-15.515-15.515h-682.667c-8.569 0-15.515 6.946-15.515 15.515s6.946 15.515 15.515 15.515h108.606v620.606c0 17.138 13.893 31.030 31.030 31.030h403.394c17.138 0 31.030-13.893 31.030-31.030v-620.606zM713.697 122.182v620.606h-403.394v-620.606h403.394zM667.152 463.515c8.569 0 15.515-6.946 15.515-15.515v-62.061c0-8.569-6.946-15.515-15.515-15.515s-15.515 6.946-15.515 15.515v62.061c0 8.569 6.946 15.515 15.515 15.515z" />
<glyph unicode="&#xe906;" glyph-name="admin" d="M626.309 348.787c0-17.317 3.935-24.859 13.547-32.634 1.487-1.203 7.129-5.479 7.466-5.741 2.745-2.135 4.896-3.969 6.947-6.020-1.553 1.558 9.717-1.523 22.713-4.287 4.383-0.932 23.327-4.868 28.136-5.884 12.251-2.589 22.398-4.84 32.183-7.183 37.008-8.86 63.623-17.828 81.074-28.931 31.692-20.158 45.596-75.609 53.082-152.112 0.918-9.381-5.943-17.73-15.324-18.648s-17.73 5.943-18.648 15.324c-6.169 63.045-19.208 115.044-37.432 126.636-13.293 8.457-37.223 16.521-70.699 24.535-9.446 2.261-19.315 4.451-31.293 6.982-4.725 0.999-23.697 4.94-28.178 5.893-26.95 5.731-33.846 7.616-39.768 13.556-0.863 0.863-2.025 1.854-3.749 3.194 0.039-0.031-5.989 4.538-7.977 6.146-17.305 13.998-26.214 31.074-26.214 59.173 0 26.31 1.306 47.833 2.991 62.454l2.203 6.629c9.551 16.415 15.958 36.342 16.769 59.353 0.456 12.924 13.769 19.621 23.998 15.065 0.649 1.988 1.601 5.094 2.505 9.672 1.083 4.47 2.294 8.126 4.107 12.832 0.528 1.371 3.541 8.917 4.39 11.15 4.343 11.422 6.651 20.871 7.23 32.406-9.573 0.768-18.295 9.561-15.472 21.138 0.561 2.302 1.494 7.119 2.455 14.127 2.293 16.721 3.277 35.972 2.188 57.017-2.55 49.288-27.652 100.293-65.577 120.754-44.353 23.929-104.142 23.929-148.473 0-37.926-20.461-63.027-71.466-65.577-120.754-1.089-21.046-0.105-40.297 2.188-57.017 0.961-7.009 1.894-11.825 2.455-14.127 2.746-11.261-5.764-20.426-15.472-21.135 0.578-11.556 2.889-21.022 7.238-32.459 0.851-2.238 3.861-9.777 4.378-11.118 1.809-4.692 3.018-8.333 3.892-12.058 1.021-4.359 2.205-7.762 3.293-10.178 10.137 4.042 22.95-2.632 23.404-15.307 0.696-19.434 5.427-36.839 12.865-52.023 4.753-9.702 9.353-16.218 12.015-19.157 2.407-2.657 3.916-6.005 4.313-9.569 0.205-1.842 0.498-4.966 0.787-9.024 0.652-9.146 0.943-18.474 0.666-27.322-0.128-4.104-0.379-8.002-0.768-11.672-3.412-32.183-14.109-47.841-38.581-67.059-3.078-2.408-4.551-3.565-5.998-4.723-1.568-1.256-2.926-2.374-4.207-3.471-5.928-5.067-13.661-7.015-39.645-12.124-5.767-1.134-29.162-5.6-28.547-5.482-12.469-2.399-22.258-4.353-31.741-6.369-33.309-7.080-57.167-13.858-71.243-20.825-19.379-9.591-32.505-63.537-36.572-126.233-0.61-9.406-8.73-16.536-18.136-15.926s-16.536 8.73-15.926 18.136c5.051 77.877 19.374 136.74 55.493 154.615 17.411 8.618 43.288 15.969 79.287 23.621 9.736 2.070 19.722 4.063 32.39 6.5-0.527-0.101 22.751 4.343 28.41 5.455 13.912 2.735 25.229 5.586 24.042 4.569 1.579 1.352 3.218 2.703 5.060 4.177 1.599 1.281 3.227 2.559 6.253 4.925 17.872 14.035 23.424 22.162 25.72 43.813 0.294 2.777 0.491 5.841 0.595 9.142 0.236 7.53-0.021 15.752-0.597 23.826-0.071 1-0.142 1.93-0.211 2.783-4.064 5.334-8.83 12.825-13.51 22.379-6.738 13.755-11.717 28.901-14.34 45.327-12.224 4.595-23.147 19.541-27.802 39.409-0.446 1.901-1.214 4.214-2.507 7.569-0.409 1.060-3.457 8.697-4.434 11.264-5.701 14.991-8.845 28.159-9.49 44.342-0.668 16.372 3.468 28.957 12.881 34.504-2.227 17.864-3.112 37.986-1.984 59.789 3.111 60.136 33.63 122.148 83.455 149.029 54.445 29.389 126.42 29.389 180.89 0.002 49.827-26.883 80.347-88.895 83.458-149.031 1.135-21.935 0.232-42.169-2.025-60.114 10.285-6.749 13.571-18.155 12.923-34.163-0.645-16.176-3.786-29.329-9.482-44.308-0.974-2.562-4.024-10.201-4.443-11.288-1.293-3.355-2.059-5.668-2.481-7.481-4.291-20.878-13.792-34.793-27.703-38.684-2.987-19.516-9.258-37.052-17.71-52.411-1.362-13.285-2.398-32.22-2.398-55.16zM368.374 488.333c-0.736-0.395-1.36-0.891-1.795-1.472 0.548 0.731 1.132 1.4 1.744 2.009l0.051-0.537zM355.266 566.808c-0.009-0.018-0.025-0.082-0.043-0.19-0.038 0.037 0.003 0.113 0.043 0.19zM343.21 562.2c0.242-0.196 0.252-0.207 0.21-0.184-0.031 0.040-0.12 0.112-0.21 0.184zM670.83 564.816c-0.268-0.337-0.543-0.66-0.824-0.969 0.218 0.25 0.496 0.572 0.824 0.969zM666.616 561.476l0.562 0.214c-0.077-0.043-0.154-0.085-0.232-0.126-0.107-0.032-0.216-0.061-0.329-0.087zM527.051 294.33c9.36 1.114 17.85-5.571 18.963-14.931l17.067-143.45c0.527-4.431-0.702-8.892-3.424-12.428l-34.133-44.333c-6.832-8.873-20.214-8.873-27.046 0l-34.133 44.333c-2.722 3.536-3.951 7.997-3.424 12.428l17.067 143.45c1.114 9.36 9.604 16.044 18.963 14.931 8.594-1.022 14.933-8.264 15.050-16.687 0.118 8.423 6.457 15.665 15.050 16.687zM512.12 275.367c-0.072 0.604-0.111 1.204-0.12 1.799-0.008-0.595-0.048-1.195-0.12-1.799l-16.244-136.538 16.364-21.254 16.364 21.254-16.244 136.538zM512.001 277.644c-0.002-0.159-0.002-0.318 0-0.478 0.002 0.16 0.002 0.319 0 0.478z" />
<glyph unicode="&#xe907;" glyph-name="analyze" d="M248.242 494.545h31.030c34.275 0 62.061-27.785 62.061-62.061v-186.182c0-34.275-27.785-62.061-62.061-62.061h-31.030c-34.275 0-62.061 27.785-62.061 62.061v186.182c0 34.275 27.785 62.061 62.061 62.061zM248.242 463.515c-17.138 0-31.030-13.893-31.030-31.030v-186.182c0-17.138 13.893-31.030 31.030-31.030h31.030c17.138 0 31.030 13.893 31.030 31.030v186.182c0 17.138-13.893 31.030-31.030 31.030h-31.030zM496.485 773.818h31.030c34.275 0 62.061-27.785 62.061-62.061v-465.455c0-34.275-27.785-62.061-62.061-62.061h-31.030c-34.275 0-62.061 27.785-62.061 62.061v465.455c0 34.275 27.785 62.061 62.061 62.061zM496.485 742.788c-17.138 0-31.030-13.893-31.030-31.030v-465.455c0-17.138 13.893-31.030 31.030-31.030h31.030c17.138 0 31.030 13.893 31.030 31.030v465.455c0 17.138-13.893 31.030-31.030 31.030h-31.030zM744.727 618.667h31.030c34.275 0 62.061-27.785 62.061-62.061v-310.303c0-34.275-27.785-62.061-62.061-62.061h-31.030c-34.275 0-62.061 27.785-62.061 62.061v310.303c0 34.275 27.785 62.061 62.061 62.061zM744.727 587.636c-17.138 0-31.030-13.893-31.030-31.030v-310.303c0-17.138 13.893-31.030 31.030-31.030h31.030c17.138 0 31.030 13.893 31.030 31.030v310.303c0 17.138-13.893 31.030-31.030 31.030h-31.030zM170.667 91.152c-8.569 0-15.515 6.946-15.515 15.515s6.946 15.515 15.515 15.515h682.667c8.569 0 15.515-6.946 15.515-15.515s-6.946-15.515-15.515-15.515h-682.667z" />
<glyph unicode="&#xe908;" glyph-name="crosschex-t" horiz-adv-x="5182" d="M837.818 693.139c-37.236 0-68.267-6.206-102.4-18.618-31.030-12.412-58.958-27.927-80.679-49.648s-40.339-49.648-55.855-83.782c-12.412-34.133-18.618-71.37-18.618-117.915 0-43.442 6.206-83.782 18.618-114.812 12.412-34.133 31.030-58.958 52.752-80.679s49.648-37.236 80.679-46.545c31.030-9.309 68.267-15.515 105.503-15.515 9.309 0 21.721 0 34.133 3.103 12.412 0 24.824 3.103 37.236 6.206s24.824 3.103 34.133 6.206c12.412 3.103 21.721 6.206 31.030 9.309v-68.267c-18.618-6.206-40.339-12.412-65.164-18.618-24.824-3.103-49.648-6.206-77.576-6.206-52.752 0-102.4 6.206-142.739 21.721-37.236 12.412-71.37 34.133-99.297 62.061s-49.648 62.061-65.164 102.4c-15.515 40.339-21.721 86.885-21.721 136.533s6.206 96.194 21.721 139.636c15.515 43.442 37.236 77.576 65.164 108.606s62.061 52.752 105.503 71.37c40.339 15.515 86.885 24.824 136.533 24.824 12.412 0 27.927 0 40.339-3.103 12.412 0 24.824-3.103 37.236-6.206s21.721-3.103 34.133-6.206c9.309-3.103 18.618-6.206 27.927-9.309v-68.267c-18.618 6.206-40.339 12.412-65.164 15.515-21.721 6.206-43.442 6.206-68.267 6.206zM1349.818 503.855h-6.206c-18.618 0-34.133-3.103-52.752-6.206-15.515-3.103-34.133-9.309-46.545-15.515-15.515-6.206-27.927-15.515-40.339-24.824s-21.721-21.721-31.030-34.133v-319.612h-74.473v462.352h58.958l15.515-71.37c6.206 12.412 15.515 21.721 27.927 34.133 9.309 9.309 21.721 18.618 37.236 27.927 12.412 6.206 27.927 12.412 43.442 18.618s34.133 6.206 49.648 6.206c3.103 0 6.206 0 9.309 0s6.206 0 9.309 0v-77.576zM1836.994 336.291c0-37.236-6.206-68.267-15.515-99.297s-24.824-55.855-43.442-74.473c-18.618-21.721-40.339-37.236-68.267-49.648s-55.855-18.618-89.988-18.618c-34.133 0-65.164 6.206-89.988 18.618-27.927 12.412-49.648 27.927-68.267 49.648s-34.133 46.545-43.442 74.473c-9.309 31.030-15.515 62.061-15.515 99.297s6.206 68.267 15.515 99.297c9.309 31.030 24.824 55.855 43.442 77.576s40.339 37.236 68.267 49.648c27.927 12.412 55.855 18.618 89.988 18.618s65.164-6.206 89.988-18.618c27.927-12.412 49.648-27.927 68.267-49.648s34.133-46.545 43.442-77.576c12.412-31.030 15.515-62.061 15.515-99.297zM1759.418 336.291c0 27.927-3.103 52.752-9.309 74.473s-15.515 40.339-27.927 55.855c-15.515 15.515-27.927 27.927-46.545 34.133-15.515 9.309-34.133 12.412-55.855 12.412s-40.339-3.103-55.855-12.412c-15.515-9.309-31.030-18.618-43.442-34.133s-21.721-34.133-27.927-55.855c-6.206-21.721-9.309-46.545-9.309-74.473s3.103-52.752 9.309-74.473 15.515-40.339 27.927-55.855c12.412-15.515 27.927-27.927 43.442-34.133 15.515-9.309 34.133-12.412 55.855-12.412s37.236 3.103 55.855 12.412c15.515 9.309 31.030 18.618 43.442 34.133s21.721 34.133 27.927 55.855c9.309 21.721 12.412 46.545 12.412 74.473zM2007.661 441.794c0-12.412 3.103-21.721 9.309-31.030s12.412-15.515 21.721-18.618c9.309-6.206 18.618-9.309 31.030-12.412s24.824-6.206 37.236-9.309c18.618-3.103 34.133-9.309 49.648-12.412 15.515-6.206 31.030-12.412 43.442-21.721s24.824-21.721 31.030-37.236c9.309-15.515 12.412-37.236 12.412-62.061 0-21.721-3.103-43.442-12.412-62.061s-21.721-34.133-37.236-43.442c-15.515-12.412-37.236-21.721-58.958-27.927s-46.545-9.309-74.473-9.309c-15.515 0-31.030 0-46.545 3.103-12.412 3.103-24.824 3.103-37.236 6.206-9.309 3.103-18.618 6.206-27.927 9.309-6.206 3.103-12.412 6.206-18.618 9.309v62.061c18.618-6.206 37.236-12.412 55.855-18.618 18.618-3.103 40.339-6.206 62.061-6.206 18.618 0 34.133 3.103 46.545 6.206 15.515 3.103 27.927 9.309 37.236 15.515s18.618 15.515 24.824 24.824c6.206 9.309 9.309 21.721 9.309 34.133s-3.103 24.824-6.206 31.030c-6.206 9.309-12.412 15.515-21.721 21.721s-18.618 9.309-31.030 12.412c-12.412 3.103-21.721 6.206-34.133 9.309-15.515 3.103-31.030 6.206-49.648 12.412-15.515 6.206-31.030 12.412-46.545 21.721s-24.824 21.721-34.133 34.133c-9.309 15.515-12.412 34.133-12.412 58.958s3.103 43.442 12.412 62.061c9.309 18.618 21.721 31.030 34.133 43.442 15.515 12.412 31.030 21.721 52.752 24.824 18.618 6.206 40.339 9.309 62.061 9.309 24.824 0 49.648-3.103 71.37-6.206 21.721-6.206 40.339-12.412 58.958-18.618v-62.061c-18.618 6.206-37.236 12.412-55.855 18.618-18.618 3.103-40.339 6.206-58.958 6.206s-31.030-3.103-43.442-6.206c-12.412-3.103-21.721-9.309-31.030-15.515s-12.412-12.412-18.618-21.721c-3.103-12.412-6.206-21.721-6.206-34.133zM2407.952 441.794c0-12.412 3.103-21.721 9.309-31.030s12.412-15.515 21.721-18.618c9.309-6.206 18.618-9.309 31.030-12.412s24.824-6.206 37.236-9.309c18.618-3.103 34.133-9.309 49.648-12.412 15.515-6.206 31.030-12.412 43.442-21.721s24.824-21.721 31.030-37.236c9.309-15.515 12.412-37.236 12.412-62.061 0-21.721-3.103-43.442-12.412-62.061s-21.721-34.133-37.236-43.442c-15.515-12.412-37.236-21.721-58.958-27.927s-46.545-9.309-74.473-9.309c-15.515 0-31.030 0-46.545 3.103-12.412 3.103-24.824 3.103-37.236 6.206-9.309 3.103-18.618 6.206-27.927 9.309-6.206 3.103-12.412 6.206-18.618 9.309v62.061c18.618-6.206 37.236-12.412 55.855-18.618 18.618-3.103 40.339-6.206 62.061-6.206 18.618 0 34.133 3.103 46.545 6.206 15.515 3.103 27.927 9.309 37.236 15.515s18.618 15.515 24.824 24.824c6.206 9.309 9.309 21.721 9.309 34.133s-3.103 24.824-6.206 31.030c-6.206 9.309-12.412 15.515-21.721 21.721s-18.618 9.309-31.030 12.412c-12.412 3.103-21.721 6.206-34.133 9.309-15.515 3.103-31.030 6.206-49.648 12.412-15.515 6.206-31.030 12.412-46.545 21.721s-24.824 21.721-34.133 34.133c-9.309 15.515-12.412 34.133-12.412 58.958s3.103 43.442 12.412 62.061c9.309 18.618 21.721 31.030 34.133 43.442 15.515 12.412 31.030 21.721 52.752 24.824 18.618 6.206 40.339 9.309 62.061 9.309 24.824 0 49.648-3.103 71.37-6.206 21.721-6.206 40.339-12.412 58.958-18.618v-62.061c-18.618 6.206-37.236 12.412-55.855 18.618-18.618 3.103-40.339 6.206-58.958 6.206s-31.030-3.103-43.442-6.206c-12.412-3.103-21.721-9.309-31.030-15.515s-12.412-12.412-18.618-21.721c-6.206-12.412-6.206-21.721-6.206-34.133zM3075.103 693.139c-37.236 0-68.267-6.206-102.4-18.618-31.030-12.412-58.958-27.927-80.679-49.648s-40.339-49.648-55.855-83.782c-12.412-34.133-18.618-71.37-18.618-117.915 0-43.442 6.206-83.782 18.618-114.812 12.412-34.133 31.030-58.958 52.752-80.679s49.648-37.236 80.679-46.545c31.030-9.309 68.267-15.515 105.503-15.515 9.309 0 21.721 0 34.133 3.103 12.412 0 24.824 3.103 37.236 6.206s24.824 3.103 34.133 6.206c12.412 3.103 21.721 6.206 31.030 9.309v-68.267c-18.618-6.206-40.339-12.412-65.164-18.618-24.824-3.103-49.648-6.206-77.576-6.206-52.752 0-102.4 6.206-142.739 21.721-40.339 12.412-74.473 34.133-102.4 62.061s-49.648 62.061-65.164 102.4c-15.515 40.339-21.721 86.885-21.721 136.533s6.206 96.194 21.721 139.636c15.515 43.442 37.236 77.576 65.164 108.606s62.061 52.752 105.503 71.37c40.339 15.515 86.885 24.824 136.533 24.824 12.412 0 27.927 0 40.339-3.103 12.412 0 24.824-3.103 37.236-6.206s21.721-3.103 34.133-6.206c9.309-3.103 18.618-6.206 27.927-9.309v-68.267c-18.618 6.206-40.339 12.412-65.164 15.515s-43.442 6.206-65.164 6.206zM3413.333 503.855v0c9.309 9.309 18.618 21.721 27.927 31.030s21.721 15.515 34.133 24.824c12.412 6.206 24.824 12.412 40.339 15.515s31.030 6.206 46.545 6.206c18.618 0 34.133-3.103 52.752-6.206 18.618-6.206 34.133-12.412 49.648-24.824s27.927-27.927 37.236-49.648c9.309-21.721 12.412-49.648 12.412-80.679v-307.2h-74.473v288.582c0 37.236-6.206 65.164-21.721 83.782-12.412 18.618-37.236 27.927-68.267 27.927-24.824 0-52.752-6.206-74.473-21.721-24.824-15.515-43.442-34.133-62.061-58.958v-325.818h-74.473v698.182h74.473v-300.994zM4077.382 159.418c24.824 0 46.545 3.103 68.267 6.206s40.339 9.309 62.061 18.618v-62.061c-15.515-9.309-37.236-15.515-62.061-18.618s-49.648-6.206-77.576-6.206c-34.133 0-62.061 3.103-93.091 12.412-27.927 9.309-52.752 21.721-74.473 40.339s-37.236 43.442-49.648 74.473c-12.412 31.030-18.618 65.164-18.618 108.606 0 40.339 6.206 77.576 18.618 108.606s27.927 55.855 46.545 77.576c18.618 21.721 40.339 37.236 65.164 46.545s49.648 15.515 77.576 15.515c24.824 0 49.648-3.103 71.37-12.412s40.339-21.721 58.958-40.339c15.515-18.618 27.927-43.442 37.236-71.37s15.515-62.061 15.515-105.503c0-3.103 0-6.206 0-9.309s0-9.309 0-18.618h-316.509c0-27.927 3.103-52.752 12.412-74.473s21.721-37.236 37.236-49.648c15.515-12.412 34.133-21.721 52.752-27.927 21.721-9.309 43.442-12.412 68.267-12.412zM4037.042 513.164c-18.618 0-34.133-3.103-46.545-9.309-15.515-6.206-27.927-15.515-37.236-27.927s-18.618-24.824-27.927-40.339c-6.206-15.515-12.412-31.030-12.412-49.648h232.727c0 18.618-3.103 34.133-6.206 49.648-6.206 15.515-12.412 27.927-21.721 40.339s-21.721 21.721-34.133 27.927c-12.412 6.206-27.927 9.309-46.545 9.309zM4502.497 389.042l124.121 176.873h83.782l-167.564-226.521 173.77-229.624h-80.679l-133.43 183.079h-3.103l-133.43-183.079h-80.679l173.77 232.727-167.564 223.418h83.782l127.224-176.873z" />
<glyph unicode="&#xe909;" glyph-name="card" d="M387.757 813.288l-240.902-240.902c-13.667-13.667-13.707-35.022-0.452-48.277l459.029-459.029c13.071-13.071 34.809-13.016 48.277 0.452l240.902 240.902c13.667 13.667 13.707 35.022 0.452 48.277l-459.029 459.029c-13.071 13.071-34.809 13.016-48.277-0.452zM339.485 861.56c40.116 40.116 105.078 40.195 144.821 0.452l459.029-459.029c39.866-39.866 39.924-104.445-0.452-144.821l-240.902-240.902c-40.116-40.116-105.078-40.195-144.821-0.452l-459.029 459.029c-39.866 39.866-39.924 104.445 0.452 144.821l240.902 240.902zM419.597 321.464l196-196c13.33-13.33 34.942-13.33 48.272 0s13.33 34.942 0 48.272l-196 196c-13.33 13.33-34.942 13.33-48.272 0s-13.33-34.942 0-48.272z" />
<glyph unicode="&#xe90a;" glyph-name="card-a" d="M756.779 209.888h-489.558c-62.746 0-112.070 50.865-112.070 115.012v271.846c0 64.147 49.323 115.012 112.070 115.012h489.558c62.746 0 112.070-50.865 112.070-115.012v-271.846c0-64.147-49.323-115.012-112.070-115.012zM756.779 245.736c42.697 0 76.222 34.572 76.222 79.164v271.846c0 44.591-33.525 79.164-76.222 79.164h-489.558c-42.697 0-76.222-34.572-76.222-79.164v-271.846c0-44.591 33.525-79.164 76.222-79.164h489.558zM261.065 503.189c0 9.899 8.025 17.924 17.924 17.924s17.924-8.025 17.924-17.924v-84.731c0-9.899-8.025-17.924-17.924-17.924s-17.924 8.025-17.924 17.924v84.731z" />
<glyph unicode="&#xe90b;" glyph-name="cloud-block" d="M797.479 533.333c0 59.135-47.92 107.055-107.055 107.055-31.428 0-59.415-13.79-79.016-35.353-30.969 63.137-95.686 106.723-170.777 106.723-105.117 0-190.328-85.21-190.328-190.328 0-10.603 1.096-20.927 2.753-31.071-56.841-18.811-97.904-74.836-97.904-137.998 0-78.838 63.901-145.288 142.739-145.288h428.218c78.838 0 142.739 66.45 142.739 145.288 0 57.707-34.308 109.833-83.579 132.34 7.545 14.656 12.209 31.020 12.209 48.633z" />
<glyph unicode="&#xe90d;" glyph-name="authority" d="M529.067 302.933h79.183v-34.133h-79.183v-76.8h-34.133v223.077c-57.895 8.281-102.4 58.072-102.4 118.257 0 65.98 53.487 119.467 119.467 119.467s119.467-53.487 119.467-119.467c0-60.185-44.505-109.976-102.4-118.257v-112.143zM170.667 714.825c150.253 0 264.030 53.281 341.333 159.842 76.192-106.561 189.97-159.842 341.333-159.842v-228.452c0-182.785-104.267-349.557-268.591-429.605l-72.742-35.435-72.742 35.435c-164.324 80.048-268.591 246.82-268.591 429.605v228.452zM204.8 681.594v-195.221c0-169.729 96.819-324.588 249.406-398.919l57.794-28.153 57.794 28.153c152.587 74.33 249.406 229.19 249.406 398.919v195.209c-128.845 6.842-231.982 53.082-307.358 138.472-76.043-85.325-179.055-131.576-307.042-138.46zM512 448c47.128 0 85.333 38.205 85.333 85.333s-38.205 85.333-85.333 85.333c-47.128 0-85.333-38.205-85.333-85.333s38.205-85.333 85.333-85.333z" />
<glyph unicode="&#xe90e;" glyph-name="btn-default" d="M530.983 134.956v367.79l228.378 252.454h-494.722l228.378-252.454v-334.214l-34.133 30.185v290.881l-271.15 299.736h648.533l-271.15-299.736v-384.827l-34.133 30.185z" />
<glyph unicode="&#xe90f;" glyph-name="btn-fliter" d="M187.733 789.333h648.533l-271.15-299.736v-384.827l-106.233 93.946v290.881l-271.15 299.736zM637.070 620.016l122.291 135.184h-494.722l122.101-134.973 250.33-0.21z" />
<glyph unicode="&#xe910;" glyph-name="dashbord" d="M559.065 519.201l182.226 182.226c6.665 6.665 17.471 6.665 24.136 0s6.665-17.471 0-24.136l-182.226-182.226c21.951-33.133 18.331-78.213-10.861-107.405-33.325-33.325-87.355-33.325-120.68 0s-33.325 87.355 0 120.68c29.192 29.192 74.272 32.812 107.405 10.861zM512 38.4c-226.216 0-409.6 183.384-409.6 409.6s183.384 409.6 409.6 409.6c226.216 0 409.6-183.384 409.6-409.6s-183.384-409.6-409.6-409.6zM512 72.533c207.365 0 375.467 168.102 375.467 375.467s-168.102 375.467-375.467 375.467c-207.365 0-375.467-168.102-375.467-375.467s168.102-375.467 375.467-375.467zM426.667 277.333h170.667c28.277 0 51.2-22.923 51.2-51.2s-22.923-51.2-51.2-51.2h-170.667c-28.277 0-51.2 22.923-51.2 51.2s22.923 51.2 51.2 51.2zM426.667 243.2c-9.426 0-17.067-7.641-17.067-17.067s7.641-17.067 17.067-17.067h170.667c9.426 0 17.067 7.641 17.067 17.067s-7.641 17.067-17.067 17.067h-170.667zM679.542 705.531c7.896-5.147 10.125-15.721 4.978-23.617s-15.721-10.125-23.617-4.978c-43.955 28.651-95.259 44.131-148.903 44.131-150.811 0-273.067-122.256-273.067-273.067 0-9.426-7.641-17.067-17.067-17.067s-17.067 7.641-17.067 17.067c0 169.662 137.538 307.2 307.2 307.2 60.314 0 118.084-17.431 167.542-49.669zM548.204 411.796c19.995 19.995 19.995 52.413 0 72.408s-52.413 19.995-72.408 0c-19.995-19.995-19.995-52.413 0-72.408s52.413-19.995 72.408 0zM819.2 448c0-9.426-7.641-17.067-17.067-17.067s-17.067 7.641-17.067 17.067c0 52.325-14.725 102.431-42.065 145.686-5.036 7.967-2.66 18.509 5.308 23.545s18.509 2.66 23.545-5.308c30.765-48.672 47.346-105.094 47.346-163.923z" />
<glyph unicode="&#xe911;" glyph-name="device" d="M153.6 755.504v-615.008c0-37.441 30.664-67.963 68.5-67.963h579.799c38.082 0 68.5 30.33 68.5 67.963v615.008c0 37.441-30.664 67.963-68.5 67.963h-579.799c-38.082 0-68.5-30.33-68.5-67.963zM119.467 755.504c0 56.386 45.602 102.096 102.634 102.096h579.799c56.683 0 102.634-45.799 102.634-102.096v-615.008c0-56.386-45.602-102.096-102.634-102.096h-579.799c-56.683 0-102.634 45.799-102.634 102.096v615.008zM221.867 721.080c0 18.901 15.185 34.12 34.045 34.12h512.176c18.907 0 34.045-15.114 34.045-34.12v-204.826c0-18.901-15.185-34.12-34.045-34.12h-512.176c-18.907 0-34.045 15.114-34.045 34.12v204.826zM187.733 721.080v-204.826c0-37.962 30.525-68.254 68.179-68.254h512.176c37.768 0 68.179 30.558 68.179 68.254v204.826c0 37.962-30.525 68.254-68.179 68.254h-512.176c-37.768 0-68.179-30.558-68.179-68.254zM631.467 311.265c0 18.939 15.355 34.335 34.062 34.335h68.409c18.948 0 34.062-15.115 34.062-34.335v-101.996c0-18.939-15.355-34.335-34.062-34.335h-68.409c-18.948 0-34.062 15.115-34.062 34.335v101.996zM597.333 311.265v-101.996c0-38.208 30.532-68.469 68.195-68.469h68.409c37.535 0 68.195 30.654 68.195 68.469v101.996c0 38.208-30.532 68.469-68.195 68.469h-68.409c-37.535 0-68.195-30.654-68.195-68.469zM221.867 311.467h307.2v34.133h-307.2v-34.133zM221.867 243.2h307.2v34.133h-307.2v-34.133zM221.867 174.933h307.2v34.133h-307.2v-34.133z" />
<glyph unicode="&#xe912;" glyph-name="down-arrow" d="M687.211 552.062c6.059 6.059 15.883 6.059 21.942 0s6.059-15.883 0-21.942l-186.182-186.182c-6.059-6.059-15.883-6.059-21.942 0l-186.182 186.182c-6.059 6.059-6.059 15.883 0 21.942s15.883 6.059 21.942 0l175.211-175.211 175.211 175.211z" />
<glyph unicode="&#xe913;" glyph-name="down" d="M512 251.077l-275.692 315.077h551.385z" />
<glyph unicode="&#xe914;" glyph-name="down-load" d="M498.006 285.868v504.442c0 8.029 6.265 14.538 13.994 14.538s13.994-6.509 13.994-14.538v-504.442l172.027 172.027c5.465 5.465 14.326 5.465 19.791 0s5.465-14.326 0-19.791l-195.917-195.917c-5.465-5.465-14.326-5.465-19.791 0l-195.917 195.917c-5.465 5.465-5.465 14.326 0 19.791s14.326 5.465 19.791 0l172.027-172.027zM155.152 448c0 7.729 6.265 13.994 13.994 13.994s13.994-6.265 13.994-13.994v-287.006c0-23.065 18.901-41.854 42.12-41.854h573.48c23.198 0 42.12 18.881 42.12 41.854v287.006c0 7.729 6.265 13.994 13.994 13.994s13.994-6.265 13.994-13.994v-287.006c0-38.445-31.467-69.843-70.108-69.843h-573.48c-38.639 0-70.108 31.284-70.108 69.843v287.006z" />
<glyph unicode="&#xe915;" glyph-name="exit-bold" d="M648.533 789.333h-409.6c-18.851 0-34.133-15.282-34.133-34.133v-614.4c0-18.851 15.282-34.133 34.133-34.133h409.6c18.851 0 34.133-15.282 34.133-34.133s-15.282-34.133-34.133-34.133h-409.6c-56.554 0-102.4 45.846-102.4 102.4v614.4c0 56.554 45.846 102.4 102.4 102.4h409.6c18.851 0 34.133-15.282 34.133-34.133s-15.282-34.133-34.133-34.133zM753.862 413.867h-327.195c-18.851 0-34.133 15.282-34.133 34.133s15.282 34.133 34.133 34.133h327.195l-44.131 44.131c-13.33 13.33-13.33 34.942 0 48.272s34.942 13.33 48.272 0l102.4-102.4c13.33-13.33 13.33-34.942 0-48.272l-102.4-102.4c-13.33-13.33-34.942-13.33-48.272 0s-13.33 34.942 0 48.272l44.131 44.131z" />
<glyph unicode="&#xe916;" glyph-name="password" d="M322.907 349.326l14.881 252.587h-187.602c-15.081 0-27.307 12.226-27.307 27.307s12.226 27.307 27.307 27.307h190.819l8.321 141.239c0.887 15.055 13.81 26.54 28.865 25.653s26.54-13.81 25.653-28.865l-8.132-138.027h252.492l8.321 141.239c0.887 15.055 13.81 26.54 28.865 25.653s26.54-13.81 25.653-28.865l-8.132-138.027h192.745c15.081 0 27.307-12.226 27.307-27.307s-12.226-27.307-27.307-27.307h-195.962l-14.881-252.587h190.364c15.081 0 27.307-12.226 27.307-27.307s-12.226-27.307-27.307-27.307h-193.581l-10.385-176.259c-0.887-15.055-13.81-26.54-28.865-25.653s-26.54 13.81-25.653 28.865l10.195 173.047h-252.492l-10.385-176.259c-0.887-15.055-13.81-26.54-28.865-25.653s-26.54 13.81-25.653 28.865l10.195 173.047h-189.983c-15.081 0-27.307 12.226-27.307 27.307s12.226 27.307 27.307 27.307h193.2zM377.615 349.326h252.492l14.881 252.587h-252.492l-14.881-252.587z" />
<glyph unicode="&#xe917;" glyph-name="exit" d="M648.533 806.4h-409.6c-28.277 0-51.2-22.923-51.2-51.2v-614.4c0-28.277 22.923-51.2 51.2-51.2h409.6c9.426 0 17.067-7.641 17.067-17.067s-7.641-17.067-17.067-17.067h-409.6c-47.128 0-85.333 38.205-85.333 85.333v614.4c0 47.128 38.205 85.333 85.333 85.333h409.6c9.426 0 17.067-7.641 17.067-17.067s-7.641-17.067-17.067-17.067zM802.133 430.933h-375.467c-9.426 0-17.067 7.641-17.067 17.067s7.641 17.067 17.067 17.067h375.467c0.516 0 1.027-0.023 1.532-0.068l-73.333 73.333c-6.665 6.665-6.665 17.471 0 24.136s17.471 6.665 24.136 0l102.4-102.4c6.665-6.665 6.665-17.471 0-24.136l-102.4-102.4c-6.665-6.665-17.471-6.665-24.136 0s-6.665 17.471 0 24.136l73.333 73.333c-0.505-0.045-1.016-0.068-1.532-0.068z" />
<glyph unicode="&#xe918;" glyph-name="error" d="M512 477.686l222.644 222.644c8.198 8.198 19.362 10.324 24.936 4.75s3.448-16.739-4.75-24.936l-222.644-222.644 232.144-232.144c8.198-8.198 10.324-19.362 4.75-24.936s-16.739-3.448-24.936 4.75l-232.144 232.144-232.144-232.144c-8.198-8.198-19.362-10.324-24.936-4.75s-3.448 16.739 4.75 24.936l232.144 232.144-222.644 222.644c-8.198 8.198-10.324 19.362-4.75 24.936s16.739 3.448 24.936-4.75l222.644-222.644z" />
<glyph unicode="&#xe919;" glyph-name="failed-i" d="M512-64c-282.77 0-512 229.23-512 512s229.23 512 512 512c282.77 0 512-229.23 512-512s-229.23-512-512-512zM508.365 508.957l-167.095 167.095c-15.381 15.381-40.318 15.381-55.698 0s-15.381-40.318 0-55.698l167.095-167.095-167.095-167.095c-15.381-15.381-15.381-40.318 0-55.698s40.318-15.381 55.698 0l167.095 167.095 167.095-167.095c15.381-15.381 40.318-15.381 55.698 0s15.381 40.318 0 55.698l-167.095 167.095 167.095 167.095c15.381 15.381 15.381 40.318 0 55.698s-40.318 15.381-55.698 0l-167.095-167.095z" />
<glyph unicode="&#xe91a;" glyph-name="help" d="M512 55.467c-216.79 0-392.533 175.743-392.533 392.533s175.743 392.533 392.533 392.533c216.79 0 392.533-175.743 392.533-392.533s-175.743-392.533-392.533-392.533zM512 89.6c197.939 0 358.4 160.461 358.4 358.4s-160.461 358.4-358.4 358.4c-197.939 0-358.4-160.461-358.4-358.4s160.461-358.4 358.4-358.4zM507.221 656.35c39.322 0 70.042-11.059 92.774-33.178 22.118-20.89 33.178-49.152 33.178-84.787 0-25.805-7.987-49.152-22.733-69.427-7.373-8.602-23.347-23.962-48.538-47.309-14.746-12.288-25.19-23.962-31.334-35.021-8.602-14.131-12.902-30.106-12.902-47.309v-17.818h-37.478v17.818c0 17.818 3.686 34.406 11.059 49.152 8.602 18.432 27.034 41.165 56.525 66.97 14.131 13.517 23.962 23.347 28.877 29.491 12.288 16.589 19.046 33.792 19.046 52.224 0 26.419-7.987 47.309-22.733 62.669-15.974 15.974-38.707 23.347-67.584 23.347-32.563 0-57.139-10.445-73.728-32.563-14.746-19.046-22.118-44.851-22.733-76.8h-36.864c0.614 41.779 12.288 74.957 34.406 100.762 23.962 28.262 57.754 41.779 100.762 41.779zM499.234 270.507c8.602 0 15.974-2.458 22.118-8.602 6.144-5.53 9.216-12.902 9.216-22.118 0-8.602-3.072-15.974-9.216-22.118-6.144-5.53-13.517-8.602-22.118-8.602s-15.974 3.072-21.504 9.216c-6.758 6.144-9.83 12.902-9.83 21.504 0 9.216 3.072 16.589 9.83 22.118 5.53 6.144 12.902 8.602 21.504 8.602z" />
<glyph unicode="&#xe91b;" glyph-name="left" d="M315.077 448l315.077 275.692v-551.385z" />
<glyph unicode="&#xe91c;" glyph-name="fingerprint" d="M539.288 113.192c-4.416 0-7.024 0.652-10.008 3.636-6.53 6.53-8.389 15.825-2.62 21.508 1.323 1.804 3.735 5.516 6.877 11.086 5.29 9.377 10.592 20.513 15.549 33.356 14.206 36.805 22.738 79.856 22.738 128.78v151.136c0 34.886-29.137 64.023-64.023 64.023s-64.023-29.137-64.023-64.023v-71.37c0-9.196-6.548-15.743-15.743-15.743s-15.743 6.548-15.743 15.743v71.37c0 53.277 42.233 95.509 95.509 95.509s95.509-42.233 95.509-95.509v-151.136c0-54.161-9.565-101.371-25.594-141.784-5.373-13.547-11.107-25.375-17.029-35.824-3.309-5.838-8.568-14.175-8.31-13.658-2.92-5.84-6.068-7.099-13.090-7.099zM369.261 134.183c-2.114 0-3.412 0.059-5.061 0.334-2.8 0.467-5.187 1.443-7.046 3.302-6.248 6.248-6.248 15.868 0 22.115 32.729 32.729 55.139 98.78 55.139 164.218 0 9.196 6.548 15.743 15.743 15.743s15.743-6.548 15.743-15.743c0-69.426-22.050-142.727-63.123-184.927-0.683-4.51-3.799-5.042-11.395-5.042zM451.126 111.093c-4.416 0-7.024 0.652-10.008 3.636-6.53 6.53-8.389 15.825-2.099 22.115l1.657 1.597c34.086 44.111 51.382 99.145 51.382 160.522v174.226c0 9.196 6.548 15.743 15.743 15.743s15.743-6.548 15.743-15.743v-174.226c0-65.439-20.891-127.562-60.312-180.036l-1.124-1.124c-1.693-4.027-6.884-6.711-10.984-6.711zM631.649 129.985h-4.198l-2.347 0.554c-7.84 3.92-11.826 13.886-6.594 21.634 1.565 3.304 3.060 6.708 4.485 10.203 6.419 15.738 11.203 32.652 14.578 49.573 1.182 5.926 2.102 11.425 2.792 16.352 0.411 2.936 0.652 5.013 0.73 5.589 0 5.905 4.944 12.367 10.040 13.477 5.667 2.383 11.731 0.511 15.856-3.621 1.428-1.547 4.053-4.29 7.601-7.828 5.919-5.903 12.214-11.806 18.602-17.304 5.514-4.746 10.846-8.968 15.891-12.525 1.76-1.241 3.477-2.395 4.676-3.191 6.804-3.402 9.947-14.93 6.545-21.734s-14.93-9.948-21.991-6.408c-10.927 6.244-19.228 13.057-32.335 25.847-5.91-23.278-8.888-32.952-15.298-48.377-1.733-4.171-3.553-8.2-5.47-12.090-0.756-6.446-6.761-10.153-13.564-10.153zM304.188 174.066c-3.645 0-9.099 2.727-12.107 5.735-6.248 6.248-6.248 15.868 0 22.115 1.222 1.222 3.482 3.774 6.437 7.62 4.988 6.493 9.991 14.212 14.668 23.12 13.397 25.517 21.439 55.39 21.439 89.397v134.343c0 33.104 6.898 57.016 21.545 86.311 3.442 6.883 12.623 9.638 21.734 6.545 6.883-3.442 9.638-12.623 6.616-21.587-13.13-28.448-18.409-48.245-18.409-71.27v-134.343c0-40.491-9.335-75.817-24.998-105.81-9.643-18.465-19.219-30.842-26.917-38.541-2.984-2.984-5.592-3.636-10.008-3.636zM698.848 262.39c-29.518 28.512-47.258 60.511-47.258 95.348v98.658c0 78.235-64.083 141.69-141.69 141.69-31.969 0-64.449-11.91-88.65-32.049-6.828-6.828-16.962-5.814-22.115 2.099-6.828 6.828-5.814 16.962 2.395 22.389 29.626 25.394 68.311 39.047 108.371 39.047 95.259 0 173.176-77.917 173.176-173.176v-98.658c0-26.717 15.017-52.057 40.272-75.103 8.96-8.176 18.58-15.463 28.198-21.755 5.754-3.764 10.203-6.346 12.593-7.602 6.883-3.442 9.638-12.623 6.545-21.734-2.916-5.832-8.807-9.198-15.189-9.198-2.204 0-3.137 0.062-4.546 0.532-1.712 0.571-3.093 1.664-3.946 3.133-11.273 6.060-31.118 19.922-48.156 36.379zM251.711 239.139c-4.416 0-7.024 0.652-10.008 3.636-6.53 6.53-8.389 15.825-2.486 21.683 1.76 2.199 4.628 7.159 7.576 15.082 5.030 13.517 8.067 30.412 8.068 50.827l-2.097 132.146c-2.148 62.282 21.461 122.428 66.606 169.721 49.982 49.982 118.74 79.204 188.432 79.204 48.409 0 93.348-13.586 138.789-42.536 6.883-3.442 9.638-12.623 6.545-21.734-3.402-6.804-14.93-9.948-22.087-6.351-41.197 24.718-82.257 37.036-123.247 37.036-63.973 0-123.364-24.836-166.223-69.736-39.294-41.362-59.363-92.591-57.333-147.437l2.1-130.229c0-24.501-4.028-45.113-10.858-62.528-4.045-10.316-10.133-21.172-10.133-19.338l-1.537-3.711c-4.045-4.045-6.862-5.735-12.107-5.735zM793.281 279.022c-4.416 0-7.024 0.652-10.008 3.636-6.53 6.53-8.389 15.825-2.781 21.276 1.005 1.537 2.854 4.746 5.27 9.601 4.077 8.194 8.166 17.984 11.991 29.347 10.974 32.598 17.568 71.196 17.569 115.518-2.837 156.061-117.972 299.218-307.52 299.218-116.004 0-198.99-53.386-246.915-126.556-3.038-9.113-14.199-11.142-23.383-6.249-6.53 6.53-8.389 15.825-2.808 21.233 53.568 83.699 144.513 143.059 273.106 143.059 209.869 0 336.907-158.639 336.907-332.709 0-48.54-6.861-90.573-18.365-125.741-7.376-22.551-17.057-41.999-19.973-44.534-1.597-3.194-4.139-5.274-7.232-6.305-1.968-0.656-3.486-0.794-5.858-0.794zM740.803 358.788l-3.759 0.269c-8.253 2.751-11.985 8.722-11.828 18.846 0.732 2.93 1.873 9.203 3.028 19.020 1.944 16.521 3.113 36.98 3.113 61.573 0 55.73-18.649 102.604-57.238 143.227-6.248 6.248-6.248 15.868 0 22.115s15.868 6.248 22.288-0.181c42.681-46.949 64.338-102.717 64.338-165.161 0-26.826-1.191-48.866-3.182-66.45-1.206-10.656-2.428-17.509-3.115-19.614 0-7.096-6.548-13.644-13.644-13.644zM222.571 599.631c7.84-3.92 11.826-13.886 6.616-21.587-19.897-43.11-26.805-82.093-26.805-117.45 0-43.613 3.439-67.687 16.524-120.089 2.79-8.369-1.5-15.234-8.929-18.948l-2.347-0.554h-4.198c-7.078 0-12.855 4.126-15.549 12.229-13.7 48.927-16.987 75.593-16.987 127.361 0 38.916 8.051 82.447 31.542 131.456 0.861 10.046 11.638 13.292 20.134 7.581z" />
<glyph unicode="&#xe91d;" glyph-name="help-a" d="M512 91.152c-197.082 0-356.848 159.767-356.848 356.848s159.767 356.848 356.848 356.848c197.082 0 356.848-159.767 356.848-356.848s-159.767-356.848-356.848-356.848zM512 122.182c179.944 0 325.818 145.874 325.818 325.818s-145.874 325.818-325.818 325.818c-179.944 0-325.818-145.874-325.818-325.818s145.874-325.818 325.818-325.818zM500.953 668.439c35.188 0 63.116-10.054 84.34-30.161 20.108-18.991 30.161-44.684 30.161-77.079 0-23.459-7.261-44.684-21.225-63.116-6.144-7.82-20.666-21.783-44.125-43.008-13.405-11.729-22.342-22.342-27.927-31.837-7.82-13.405-11.729-27.369-11.729-43.008v-16.198h-34.071v16.198c0 16.198 3.351 31.279 10.054 44.684 7.82 16.756 24.576 37.423 51.386 60.881 12.288 12.288 21.225 21.225 25.693 26.81 11.729 15.081 17.873 30.72 17.873 47.476 0 24.017-7.261 43.008-20.666 56.972-14.522 14.522-35.188 21.225-61.44 21.225-30.161 0-52.503-10.054-67.584-30.161-13.405-16.756-20.108-40.215-20.108-69.26h-33.513c0 37.981 10.612 68.143 30.72 91.601 22.342 25.693 53.062 37.981 92.16 37.981zM493.692 317.673c7.82 0 14.522-2.234 20.108-7.82 5.585-5.027 8.378-11.729 8.378-20.108 0-7.82-2.793-14.522-8.378-20.108-5.585-5.027-12.288-7.82-20.108-7.82s-15.081 2.793-20.666 8.378c-5.585 5.585-7.82 11.729-7.82 19.549 0 8.378 2.234 15.081 7.82 20.108 5.585 5.585 12.847 7.82 20.666 7.82z" />
<glyph unicode="&#xe91e;" glyph-name="menu" d="M864 686.933v-46.933h-704v46.933h704zM864 640h-704c-31.289 0-31.289 46.933 0 46.933h704c31.289 0 31.289-46.933 0-46.933zM864 464h-704c-12.96 0-23.467-10.506-23.467-23.467s10.506-23.467 23.467-23.467h704c12.96 0 23.467 10.506 23.467 23.467s-10.506 23.467-23.467 23.467zM864 241.067h-704c-12.96 0-23.467-10.506-23.467-23.467s10.506-23.467 23.467-23.467h704c12.96 0 23.467 10.506 23.467 23.467s-10.506 23.467-23.467 23.467z" />
<glyph unicode="&#xe91f;" glyph-name="modify-bold" d="M709.85 762.722l-289.631-289.631 72.408-72.408 289.631 289.631-72.408 72.408zM305.237 285.702l116.256 38.752c17.884 5.961 37.214-3.704 43.176-21.588s-3.704-37.214-21.588-43.176l-177.197-59.066c-13.285-4.428-27.368-0.234-36.176 9.547-9.781 8.808-13.976 22.891-9.547 36.176l59.066 177.197c5.961 17.884 25.292 27.549 43.176 21.588s27.549-25.292 21.588-43.176l-38.752-116.256zM758.122 810.994l72.408-72.408c26.66-26.66 26.66-69.884 0-96.544l-289.631-289.631c-26.66-26.66-69.884-26.66-96.544 0l-72.408 72.408c-26.66 26.66-26.66 69.884 0 96.544l289.631 289.631c26.66 26.66 69.884 26.66 96.544 0zM221.867 98.133c-18.851 0-34.133 15.282-34.133 34.133s15.282 34.133 34.133 34.133h580.267c18.851 0 34.133-15.282 34.133-34.133s-15.282-34.133-34.133-34.133h-580.267z" />
<glyph unicode="&#xe920;" glyph-name="loading-b" d="M301.812 449.612c0-17.766-14.404-32.153-32.153-32.153h-162.877c-17.766 0-32.153 14.389-32.153 32.153 0 17.748 14.389 32.153 32.153 32.153h162.877c17.748 0 32.153-14.404 32.153-32.153zM948.383 449.612c0-17.766-14.389-32.153-32.153-32.153h-162.877c-17.748 0-32.153 14.389-32.153 32.153 0 17.748 14.404 32.153 32.153 32.153h162.877c17.766 0 32.153-14.404 32.153-32.153zM543.659 854.336v-162.877c0-17.766-14.389-32.153-32.153-32.153s-32.153 14.389-32.153 32.153v162.877c0 17.766 14.389 32.153 32.153 32.153 17.766 0 32.153-14.389 32.153-32.153zM543.659 207.764v-162.892c0-17.748-14.389-32.153-32.153-32.153s-32.153 14.404-32.153 32.153v162.892c0 17.748 14.389 32.153 32.153 32.153 17.766 0 32.153-14.404 32.153-32.153zM329.932 554.514c-5.947-10.322-16.77-16.077-27.86-16.077-5.465 0-10.996 1.383-16.061 4.308l-141.045 81.478c-15.371 8.89-20.627 28.553-11.753 43.924 8.89 15.385 28.553 20.643 43.924 11.769l141.045-81.478c15.371-8.89 20.643-28.553 11.753-43.924zM889.799 231.059c-5.964-10.304-16.77-16.077-27.877-16.077-5.45 0-10.979 1.397-16.045 4.327l-141.045 81.478c-15.371 8.877-20.643 28.553-11.753 43.924 8.877 15.385 28.553 20.643 43.924 11.753l141.045-81.478c15.371-8.877 20.627-28.553 11.753-43.924zM741.809 783.965l-81.478-141.027c-5.947-10.304-16.77-16.077-27.877-16.077-5.45 0-10.979 1.397-16.045 4.327-15.385 8.877-20.643 28.539-11.753 43.924l81.478 141.027c8.877 15.385 28.539 20.643 43.924 11.769 15.371-8.89 20.643-28.553 11.753-43.939zM418.372 224.115l-81.478-141.045c-5.964-10.304-16.77-16.077-27.877-16.077-5.465 0-10.996 1.397-16.061 4.327-15.371 8.89-20.643 28.553-11.753 43.924l81.478 141.045c8.89 15.371 28.553 20.627 43.924 11.753 15.385-8.89 20.643-28.553 11.769-43.924zM406.716 631.25c-5.047-2.925-10.579-4.308-16.027-4.308-11.125 0-21.931 5.772-27.877 16.093l-81.397 141.074c-8.877 15.385-3.601 35.047 11.783 43.924s35.047 3.601 43.924-11.783l81.381-141.074c8.877-15.385 3.601-35.047-11.783-43.924zM729.815 71.174c-5.063-2.909-10.597-4.308-16.045-4.308-11.108 0-21.931 5.772-27.877 16.093l-81.381 141.091c-8.877 15.385-3.601 35.047 11.783 43.924 15.371 8.877 35.033 3.585 43.906-11.783l81.397-141.091c8.877-15.385 3.601-35.047-11.783-43.924zM878.144 623.999l-141.074-81.397c-5.063-2.909-10.597-4.308-16.045-4.308-11.108 0-21.931 5.772-27.877 16.093-8.877 15.385-3.601 35.047 11.783 43.924l141.091 81.397c15.371 8.859 35.033 3.585 43.906-11.783 8.877-15.385 3.601-35.047-11.783-43.924zM318.083 300.898l-141.091-81.381c-5.047-2.925-10.579-4.308-16.027-4.308-11.125 0-21.931 5.772-27.877 16.093-8.877 15.385-3.601 35.047 11.783 43.924l141.074 81.381c15.385 8.877 35.047 3.601 43.924-11.783s3.601-35.047-11.783-43.924z" />
<glyph unicode="&#xe921;" glyph-name="left-arrow" d="M616.062 272.789c6.059-6.059 6.059-15.883 0-21.942s-15.883-6.059-21.942 0l-186.182 186.182c-6.059 6.059-6.059 15.883 0 21.942l186.182 186.182c6.059 6.059 15.883 6.059 21.942 0s6.059-15.883 0-21.942l-175.211-175.211 175.211-175.211z" />
<glyph unicode="&#xe922;" glyph-name="modify" d="M733.984 769.792c-6.665 6.665-17.471 6.665-24.136 0l-337.903-337.903c-6.665-6.665-6.665-17.471 0-24.136l72.408-72.408c6.665-6.665 17.471-6.665 24.136 0l337.903 337.903c6.665 6.665 6.665 17.471 0 24.136l-72.408 72.408zM266.183 229.583l148.638 49.546c8.942 2.981 18.607-1.852 21.588-10.794s-1.852-18.607-10.794-21.588l-177.197-59.066c-6.946-2.315-14.328 0.084-18.675 5.461-5.377 4.347-7.776 11.729-5.461 18.675l59.066 177.197c2.981 8.942 12.646 13.775 21.588 10.794s13.775-12.646 10.794-21.588l-49.546-148.638zM758.12 793.928l72.408-72.408c19.995-19.995 19.995-52.413 0-72.408l-337.903-337.903c-19.995-19.995-52.413-19.995-72.408 0l-72.408 72.408c-19.995 19.995-19.995 52.413 0 72.408l337.903 337.903c19.995 19.995 52.413 19.995 72.408 0zM221.867 115.2c-9.426 0-17.067 7.641-17.067 17.067s7.641 17.067 17.067 17.067h580.267c9.426 0 17.067-7.641 17.067-17.067s-7.641-17.067-17.067-17.067h-580.267z" />
<glyph unicode="&#xe923;" glyph-name="ok" d="M670.845 612.018c4.898 7.031 14.568 8.76 21.599 3.863s8.76-14.568 3.863-21.599l-225.273-323.394c-5.223-7.499-15.764-8.881-22.744-2.983l-132.485 111.939c-6.545 5.53-7.368 15.319-1.838 21.865s15.319 7.368 21.865 1.838l119.475-100.947 215.538 309.419z" />
<glyph unicode="&#xe924;" glyph-name="network" d="M686.962 624.327c-10.090 13.041-17.101 28.584-19.946 45.54h-310.032c-8.125-48.43-50.245-85.333-100.984-85.333-56.554 0-102.4 45.846-102.4 102.4s45.846 102.4 102.4 102.4c50.739 0 92.859-36.903 100.984-85.333h310.032c8.125 48.43 50.245 85.333 100.984 85.333 56.554 0 102.4-45.846 102.4-102.4s-45.846-102.4-102.4-102.4c-20.64 0-39.854 6.107-55.933 16.612l-360.431-355.402c2.404-6.264 4.21-12.824 5.348-19.61h310.032c8.125 48.43 50.245 85.333 100.984 85.333 56.554 0 102.4-45.846 102.4-102.4s-45.846-102.4-102.4-102.4c-50.739 0-92.859 36.903-100.984 85.333h-310.032c-8.125-48.43-50.245-85.333-100.984-85.333-56.554 0-102.4 45.846-102.4 102.4s45.846 102.4 102.4 102.4c31.019 0 58.816-13.792 77.594-35.577l353.368 348.437zM256 618.667c37.703 0 68.267 30.564 68.267 68.267s-30.564 68.267-68.267 68.267c-37.703 0-68.267-30.564-68.267-68.267s30.564-68.267 68.267-68.267zM256 140.8c37.703 0 68.267 30.564 68.267 68.267s-30.564 68.267-68.267 68.267c-37.703 0-68.267-30.564-68.267-68.267s30.564-68.267 68.267-68.267zM768 618.667c37.703 0 68.267 30.564 68.267 68.267s-30.564 68.267-68.267 68.267c-37.703 0-68.267-30.564-68.267-68.267s30.564-68.267 68.267-68.267zM768 140.8c37.703 0 68.267 30.564 68.267 68.267s-30.564 68.267-68.267 68.267c-37.703 0-68.267-30.564-68.267-68.267s30.564-68.267 68.267-68.267z" />
<glyph unicode="&#xe925;" glyph-name="record" d="M136.533 789.164v-682.329c0-18.957 15.349-34.302 34.302-34.302h682.329c18.957 0 34.302 15.349 34.302 34.302v682.329c0 18.957-15.349 34.302-34.302 34.302h-682.329c-18.957 0-34.302-15.349-34.302-34.302zM102.4 789.164c0 37.796 30.618 68.436 68.436 68.436h682.329c37.796 0 68.436-30.618 68.436-68.436v-682.329c0-37.796-30.618-68.436-68.436-68.436h-682.329c-37.796 0-68.436 30.618-68.436 68.436v682.329zM248.931 423.864c13.33-13.33 34.942-13.33 48.272 0s13.33 34.942 0 48.272c-13.33 13.33-34.942 13.33-48.272 0s-13.33-34.942 0-48.272zM248.931 253.197c13.33-13.33 34.942-13.33 48.272 0s13.33 34.942 0 48.272c-13.33 13.33-34.942 13.33-48.272 0s-13.33-34.942 0-48.272zM248.931 594.531c13.33-13.33 34.942-13.33 48.272 0s13.33 34.942 0 48.272c-13.33 13.33-34.942 13.33-48.272 0s-13.33-34.942 0-48.272zM409.6 635.733c-22.756 0-22.756-34.133 0-34.133h341.333c22.756 0 22.756 34.133 0 34.133h-341.333zM409.6 465.067c-22.756 0-22.756-34.133 0-34.133h341.333c22.756 0 22.756 34.133 0 34.133h-341.333zM409.6 294.4c-22.756 0-22.756-34.133 0-34.133h341.333c22.756 0 22.756 34.133 0 34.133h-341.333z" />
<glyph unicode="&#xe926;" glyph-name="remove" d="M512-64c-282.77 0-512 229.23-512 512s229.23 512 512 512c282.77 0 512-229.23 512-512s-229.23-512-512-512zM784.058 492.644h-551.385c-21.752 0-39.385-17.633-39.385-39.385s17.633-39.385 39.385-39.385h551.385c21.752 0 39.385 17.633 39.385 39.385s-17.633 39.385-39.385 39.385z" />
<glyph unicode="&#xe927;" glyph-name="restart" d="M762.828 704c-140.16 137.386-365.154 136.528-504.255-2.573-139.964-139.964-139.964-366.89 0-506.854s366.89-139.964 506.854 0c68.698 68.698 105.564 160.457 104.966 255.691-0.059 9.425 7.534 17.114 16.959 17.173s17.114-7.534 17.173-16.959c0.654-104.27-39.744-204.823-114.963-280.042-153.294-153.294-401.832-153.294-555.126 0s-153.294 401.832 0 555.126c151.804 151.804 397.010 153.279 550.63 4.426v93.478c0 9.426 7.641 17.067 17.067 17.067s17.067-7.641 17.067-17.067v-136.533c0-9.426-7.641-17.067-17.067-17.067h-136.533c-9.426 0-17.067 7.641-17.067 17.067s7.641 17.067 17.067 17.067h97.228z" />
<glyph unicode="&#xe928;" glyph-name="restore" d="M494.933 413.867h204.8c9.426 0 17.067 7.641 17.067 17.067s-7.641 17.067-17.067 17.067h-187.733v187.733c0 9.426-7.641 17.067-17.067 17.067s-17.067-7.641-17.067-17.067v-204.8c0-9.426 7.641-17.067 17.067-17.067zM261.172 704c140.16 137.386 365.154 136.528 504.255-2.573 139.964-139.964 139.964-366.89 0-506.854s-366.89-139.964-506.854 0c-68.698 68.698-105.564 160.457-104.966 255.691 0.059 9.425-7.534 17.114-16.959 17.173s-17.114-7.534-17.173-16.959c-0.654-104.27 39.744-204.823 114.963-280.042 153.294-153.294 401.832-153.294 555.126 0s153.294 401.832 0 555.126c-151.804 151.804-397.010 153.279-550.63 4.426v93.478c0 9.426-7.641 17.067-17.067 17.067s-17.067-7.641-17.067-17.067v-136.533c0-9.426 7.641-17.067 17.067-17.067h136.533c9.426 0 17.067 7.641 17.067 17.067s-7.641 17.067-17.067 17.067h-97.228z" />
<glyph unicode="&#xe929;" glyph-name="del" d="M235.994 677.245h556.816c5.186 0 9.391 4.204 9.391 9.391s-4.204 9.391-9.391 9.391h-556.816c-5.186 0-9.391-4.204-9.391-9.391s4.204-9.391 9.391-9.391zM364.702 686.636v61.841c0 15.659 12.538 28.2 28.358 28.2h242.683c15.656 0 28.358-12.657 28.358-28.2v-61.841c0-5.186 4.204-9.391 9.391-9.391s9.391 4.204 9.391 9.391v61.841c0 25.93-21.125 46.982-47.14 46.982h-242.683c-26.193 0-47.14-20.951-47.14-46.982v-61.841c0-5.186 4.204-9.391 9.391-9.391s9.391 4.204 9.391 9.391zM286.284 685.989l35.887-520.356c2.486-36.053 33.499-65.091 69.578-65.091h245.305c36.072 0 67.089 29.002 69.578 65.091l35.887 520.356c0.357 5.174-3.548 9.658-8.722 10.015s-9.658-3.548-10.015-8.722l-35.887-520.356c-1.81-26.249-24.647-47.602-50.841-47.602h-245.305c-26.195 0-49.033 21.384-50.841 47.602l-35.887 520.356c-0.357 5.174-4.841 9.079-10.015 8.722s-9.079-4.841-8.722-10.015zM505.011 607.090v-397.726c0-5.186 4.204-9.391 9.391-9.391s9.391 4.204 9.391 9.391v397.726c0 5.186-4.204 9.391-9.391 9.391s-9.391-4.204-9.391-9.391zM604.454 607.559l-19.886-397.726c-0.259-5.18 3.73-9.589 8.91-9.848s9.589 3.73 9.848 8.91l19.886 397.726c0.259 5.18-3.73 9.589-8.91 9.848s-9.589-3.73-9.848-8.91zM405.591 606.621l19.886-397.726c0.259-5.18 4.668-9.169 9.848-8.91s9.169 4.668 8.91 9.848l-19.886 397.726c-0.259 5.18-4.668 9.169-9.848 8.91s-9.169-4.668-8.91-9.848z" />
<glyph unicode="&#xe92a;" glyph-name="right-arrow" d="M407.938 623.211c-6.059 6.059-6.059 15.883 0 21.942s15.883 6.059 21.942 0l186.182-186.182c6.059-6.059 6.059-15.883 0-21.942l-186.182-186.182c-6.059-6.059-15.883-6.059-21.942 0s-6.059 15.883 0 21.942l175.211 175.211-175.211 175.211z" />
<glyph unicode="&#xe92b;" glyph-name="schedule" d="M810.461 532.256l0.495 141.231c0.087 24.728-19.667 44.628-44.362 44.628h-16.515v-82.341c0-41.207-33.243-74.489-74.343-74.489-41.217 0-74.343 33.209-74.343 74.333v82.496h-209.578v-82.341c0-41.207-33.243-74.489-74.343-74.489-41.217 0-74.343 33.209-74.343 74.333v82.496h-9.781c-24.696 0-44.81-19.985-44.98-44.782l-0.966-141.077h623.059zM810.357 502.519h-623.159l-2.308-337.052c-0.169-24.676 19.472-44.578 43.936-44.578h535.799c24.538 0 44.465 19.942 44.552 44.732l1.181 336.898zM720.343 718.114h-0.587v14.869c0 23.207-19.691 42.128-44.606 42.128-24.388 0-44.606-19.606-44.606-42.128v-9.587h0.587v-87.778c0-24.717 19.829-44.596 44.606-44.596 24.67 0 44.606 19.96 44.606 44.751v82.341zM272.866 718.114v-82.496c0-24.717 19.829-44.596 44.606-44.596 24.67 0 44.606 19.96 44.606 44.751v89.067h0.829v8.142c0 23.207-19.691 42.128-44.606 42.128-24.388 0-44.606-19.606-44.606-42.128v-14.869h-0.829zM766.595 747.852c41.185 0 74.243-33.303 74.099-74.469l-1.78-507.866c-0.144-41.144-33.34-74.365-74.289-74.365h-535.799c-41.010 0-73.954 33.382-73.672 74.519l3.478 507.866c0.282 41.138 33.673 74.315 74.716 74.315h12.257c7.229 32.229 37.359 56.997 72.696 56.997 35.826 0 65.708-24.311 72.765-56.997h211.388c7.229 32.229 37.359 56.997 72.696 56.997 35.826 0 65.708-24.311 72.765-56.997h18.681z" />
<glyph unicode="&#xe92c;" glyph-name="search" d="M589.49 401.326c2.486-1.131 4.81-2.714 6.842-4.746l106.503-106.503c9.149-9.149 9.262-23.871 0.11-33.023-9.089-9.089-23.964-8.949-33.023 0.11l-106.503 106.503c-2.039 2.039-3.63 4.356-4.769 6.825-25.949-19.526-58.221-31.099-93.197-31.099-85.688 0-155.152 69.464-155.152 155.152s69.464 155.152 155.152 155.152c85.688 0 155.152-69.464 155.152-155.152 0-34.986-11.58-67.267-31.116-93.22zM465.455 370.424c68.55 0 124.121 55.571 124.121 124.121s-55.571 124.121-124.121 124.121c-68.55 0-124.121-55.571-124.121-124.121s55.571-124.121 124.121-124.121z" />
<glyph unicode="&#xe92d;" glyph-name="right" d="M708.923 448l-315.077-275.692v551.385z" />
<glyph unicode="&#xe92e;" glyph-name="setting" d="M826.081 448.119c0-38.118 27.161-70.657 64.241-77.893l17.731-3.46-4.462-17.506c-9.658-37.889-24.847-74.062-44.992-107.501l-9.284-15.411-14.9 10.084c-31.385 21.24-73.856 17.462-100.975-9.605-27.023-26.929-30.896-69.027-9.856-100.275l10.102-15.003-15.564-9.214c-33.631-19.911-69.944-34.881-107.94-44.341l-17.489-4.354-3.395 17.7c-7.12 37.119-39.816 64.39-78.19 64.39-38.265 0-70.902-27.097-78.152-64.048l-3.47-17.687-17.471 4.43c-37.981 9.63-74.243 24.774-107.765 44.86l-15.509 9.293 10.171 14.948c21.273 31.264 17.49 73.553-9.623 100.572-27.024 26.952-69.31 30.821-100.683 9.833l-14.944-9.997-9.206 15.444c-19.966 33.496-34.973 69.721-44.476 107.685l-4.386 17.523 17.744 3.385c37.248 7.106 64.584 39.705 64.584 77.931 0 38.118-27.161 70.657-64.241 77.893l-17.731 3.46 4.462 17.506c9.658 37.889 24.847 74.062 44.992 107.501l9.284 15.411 14.9-10.084c31.385-21.24 73.856-17.462 100.97 9.6 27.012 26.939 30.892 69.040 9.864 100.249l-10.104 14.996 15.554 9.221c33.615 19.929 69.93 34.906 107.949 44.372l17.489 4.354 3.395-17.7c7.12-37.119 39.816-64.39 78.19-64.39 38.265 0 70.902 27.097 78.152 64.048l3.47 17.687 17.471-4.43c37.981-9.63 74.243-24.774 107.765-44.86l15.509-9.293-10.171-14.948c-21.273-31.264-17.49-73.553 9.627-100.577 27.023-26.972 69.302-30.84 100.672-9.833l14.955 10.015 9.206-15.466c19.969-33.547 34.983-69.771 44.471-107.676l4.384-17.513-17.732-3.393c-37.264-7.131-64.594-39.715-64.594-77.933zM791.947 448.119c0 48.417 30.605 90.466 74.567 106.552-7.066 23.594-16.506 46.396-28.151 68.105-42.397-19.368-93.586-11.124-127.749 22.974-34.328 34.209-42.518 85.538-22.84 127.922-21.722 11.727-44.566 21.253-68.225 28.406-16.243-43.622-58.309-73.92-106.657-73.92-48.516 0-90.684 30.524-106.799 74.385-23.689-7.051-46.571-16.473-68.347-28.101 19.379-42.278 11.086-93.339-23.084-127.416-34.305-34.239-85.762-42.388-128.239-22.729-11.752-21.645-21.3-44.407-28.472-67.979 43.717-16.2 74.1-58.163 74.1-106.416 0-48.422-30.61-90.488-74.567-106.559 7.071-23.624 16.507-46.425 28.147-68.108 42.396 19.352 93.584 11.112 127.753-22.964 34.328-34.209 42.518-85.538 22.84-127.922 21.722-11.727 44.566-21.253 68.225-28.406 16.243 43.622 58.309 73.92 106.657 73.92 48.516 0 90.684-30.524 106.799-74.385 23.678 7.047 46.56 16.465 68.346 28.085-19.387 42.304-11.101 93.365 23.085 127.433 34.305 34.239 85.762 42.388 128.239 22.729 11.752 21.645 21.3 44.407 28.472 67.979-43.717 16.2-74.1 58.163-74.1 106.416zM511.988 315.522c74.112 0 134.155 59.777 134.155 133.477 0 73.721-60.040 133.501-134.155 133.501-74.095 0-134.132-59.783-134.132-133.501 0-73.697 60.040-133.477 134.132-133.477zM511.988 281.388c-92.91 0-168.265 75.029-168.265 167.61 0 92.601 75.351 167.634 168.265 167.634 92.934 0 168.289-75.029 168.289-167.634 0-92.586-75.359-167.61-168.289-167.61z" />
<glyph unicode="&#xe92f;" glyph-name="successed-i" d="M512-64c-282.77 0-512 229.23-512 512s229.23 512 512 512c282.77 0 512-229.23 512-512s-229.23-512-512-512zM755.952 668.24l-322.881-439.518-172.138 137.912c-16.975 13.6-41.762 10.864-55.362-6.111s-10.864-41.762 6.111-55.362l204.189-163.591c17.48-14.005 43.105-10.632 56.366 7.419l347.196 472.615c12.878 17.53 9.107 42.18-8.423 55.058s-42.18 9.107-55.058-8.423z" />
<glyph unicode="&#xe930;" glyph-name="up-arrow" d="M336.789 343.938c-6.059-6.059-15.883-6.059-21.942 0s-6.059 15.883 0 21.942l186.182 186.182c6.059 6.059 15.883 6.059 21.942 0l186.182-186.182c6.059-6.059 6.059-15.883 0-21.942s-15.883-6.059-21.942 0l-175.211 175.211-175.211-175.211z" />
<glyph unicode="&#xe931;" glyph-name="up" d="M512 644.923l275.692-315.077h-551.385z" />
<glyph unicode="&#xe932;" glyph-name="up-load" d="M498.006 757.070l-172.027-172.027c-5.465-5.465-14.326-5.465-19.791 0s-5.465 14.326 0 19.791l195.917 195.917c5.465 5.465 14.326 5.465 19.791 0l195.917-195.917c5.465-5.465 5.465-14.326 0-19.791s-14.326-5.465-19.791 0l-172.027 172.027v-456.007c0-7.729-6.265-13.994-13.994-13.994s-13.994 6.265-13.994 13.994v456.007zM155.152 448c0 7.729 6.265 13.994 13.994 13.994s13.994-6.265 13.994-13.994v-287.006c0-23.065 18.901-41.854 42.12-41.854h573.48c23.198 0 42.12 18.881 42.12 41.854v287.006c0 7.729 6.265 13.994 13.994 13.994s13.994-6.265 13.994-13.994v-287.006c0-38.445-31.467-69.843-70.108-69.843h-573.48c-38.639 0-70.108 31.284-70.108 69.843v287.006z" />
<glyph unicode="&#xe933;" glyph-name="locked" d="M609.719 686.838c-26.627 26.432-63.427 42.762-104.119 42.762-81.164 0-147.2-65.528-147.2-146.14v-58.66h294.4v58.66c0 40.411-16.454 76.946-43.081 103.379zM304 534.4v57.743c0 111.262 90.486 201.457 201.6 201.457 111.341 0 201.6-90 201.6-201.457v-57.743h0.167c47.625 0 86.233-38.717 86.233-86.383v-259.233c0-47.708-38.687-86.383-86.233-86.383h-403.534c-47.625 0-86.233 38.717-86.233 86.383v259.233c0 47.708 38.687 86.383 86.233 86.383h0.167z" />
<glyph unicode="&#xe934;" glyph-name="upgrade" d="M528.999 628.732c0.045-0.505 0.068-1.016 0.068-1.532v-307.2c0-9.426-7.641-17.067-17.067-17.067s-17.067 7.641-17.067 17.067v307.2c0 0.516 0.023 1.027 0.068 1.532l-73.333-73.333c-6.665-6.665-17.471-6.665-24.136 0s-6.665 17.471 0 24.136l102.4 102.4c6.665 6.665 17.471 6.665 24.136 0l102.4-102.4c6.665-6.665 6.665-17.471 0-24.136s-17.471-6.665-24.136 0l-73.333 73.333zM513.532 644.199l-1.532 1.532-1.532-1.532c0.505 0.045 1.016 0.068 1.532 0.068s1.027-0.023 1.532-0.068zM512 55.467c-216.79 0-392.533 175.743-392.533 392.533s175.743 392.533 392.533 392.533c216.79 0 392.533-175.743 392.533-392.533s-175.743-392.533-392.533-392.533zM512 89.6c197.939 0 358.4 160.461 358.4 358.4s-160.461 358.4-358.4 358.4c-197.939 0-358.4-160.461-358.4-358.4s160.461-358.4 358.4-358.4zM409.6 234.667c-9.426 0-17.067 7.641-17.067 17.067s7.641 17.067 17.067 17.067h204.8c9.426 0 17.067-7.641 17.067-17.067s-7.641-17.067-17.067-17.067h-204.8z" />
<glyph unicode="&#xe935;" glyph-name="user" d="M626.309 348.787c0-17.317 3.935-24.859 13.547-32.634 1.487-1.203 7.129-5.479 7.466-5.741 2.745-2.135 4.896-3.969 6.947-6.020-1.553 1.558 9.717-1.523 22.713-4.287 4.383-0.932 23.327-4.868 28.136-5.884 12.251-2.589 22.398-4.84 32.183-7.183 37.008-8.86 63.623-17.828 81.074-28.931 31.692-20.158 45.596-75.609 53.082-152.112 0.918-9.381-5.943-17.73-15.324-18.648s-17.73 5.943-18.648 15.324c-6.169 63.045-19.208 115.044-37.432 126.636-13.293 8.457-37.223 16.521-70.699 24.535-9.446 2.261-19.315 4.451-31.293 6.982-4.725 0.999-23.697 4.94-28.178 5.893-26.95 5.731-33.846 7.616-39.768 13.556-0.863 0.863-2.025 1.854-3.749 3.194 0.039-0.031-5.989 4.538-7.977 6.146-17.305 13.998-26.214 31.074-26.214 59.173 0 26.31 1.306 47.833 2.991 62.454l2.203 6.629c9.551 16.415 15.958 36.342 16.769 59.353 0.456 12.924 13.769 19.621 23.998 15.065 0.649 1.988 1.601 5.094 2.505 9.672 1.083 4.47 2.294 8.126 4.107 12.832 0.528 1.371 3.541 8.917 4.39 11.15 4.343 11.422 6.651 20.871 7.23 32.406-9.573 0.768-18.295 9.561-15.472 21.138 0.561 2.302 1.494 7.119 2.455 14.127 2.293 16.721 3.277 35.972 2.188 57.017-2.55 49.288-27.652 100.293-65.577 120.754-44.353 23.929-104.142 23.929-148.473 0-37.926-20.461-63.027-71.466-65.577-120.754-1.089-21.046-0.105-40.297 2.188-57.017 0.961-7.009 1.894-11.825 2.455-14.127 2.746-11.261-5.764-20.426-15.472-21.135 0.578-11.556 2.889-21.022 7.238-32.459 0.851-2.238 3.861-9.777 4.378-11.118 1.809-4.692 3.018-8.333 3.892-12.058 1.021-4.359 2.205-7.762 3.293-10.178 10.137 4.042 22.95-2.632 23.404-15.307 0.696-19.434 5.427-36.839 12.865-52.023 4.753-9.702 9.353-16.218 12.015-19.157 2.407-2.657 3.916-6.005 4.313-9.569 0.205-1.842 0.498-4.966 0.787-9.024 0.652-9.146 0.943-18.474 0.666-27.322-0.128-4.104-0.379-8.002-0.768-11.672-3.412-32.183-14.109-47.841-38.581-67.059-3.078-2.408-4.551-3.565-5.998-4.723-1.568-1.256-2.926-2.374-4.207-3.471-5.928-5.067-13.661-7.015-39.645-12.124-5.767-1.134-29.162-5.6-28.547-5.482-12.469-2.399-22.258-4.353-31.741-6.369-33.309-7.080-57.167-13.858-71.243-20.825-19.379-9.591-32.505-63.537-36.572-126.233-0.61-9.406-8.73-16.536-18.136-15.926s-16.536 8.73-15.926 18.136c5.051 77.877 19.374 136.74 55.493 154.615 17.411 8.618 43.288 15.969 79.287 23.621 9.736 2.070 19.722 4.063 32.39 6.5-0.527-0.101 22.751 4.343 28.41 5.455 13.912 2.735 25.229 5.586 24.042 4.569 1.579 1.352 3.218 2.703 5.060 4.177 1.599 1.281 3.227 2.559 6.253 4.925 17.872 14.035 23.424 22.162 25.72 43.813 0.294 2.777 0.491 5.841 0.595 9.142 0.236 7.53-0.021 15.752-0.597 23.826-0.071 1-0.142 1.93-0.211 2.783-4.064 5.334-8.83 12.825-13.51 22.379-6.738 13.755-11.717 28.901-14.34 45.327-12.224 4.595-23.147 19.541-27.802 39.409-0.446 1.901-1.214 4.214-2.507 7.569-0.409 1.060-3.457 8.697-4.434 11.264-5.701 14.991-8.845 28.159-9.49 44.342-0.668 16.372 3.468 28.957 12.881 34.504-2.227 17.864-3.112 37.986-1.984 59.789 3.111 60.136 33.63 122.148 83.455 149.029 54.445 29.389 126.42 29.389 180.89 0.002 49.827-26.883 80.347-88.895 83.458-149.031 1.135-21.935 0.232-42.169-2.025-60.114 10.285-6.749 13.571-18.155 12.923-34.163-0.645-16.176-3.786-29.329-9.482-44.308-0.974-2.562-4.024-10.201-4.443-11.288-1.293-3.355-2.059-5.668-2.481-7.481-4.291-20.878-13.792-34.793-27.703-38.684-2.987-19.516-9.258-37.052-17.71-52.411-1.362-13.285-2.398-32.22-2.398-55.16zM368.374 488.333c-0.736-0.395-1.36-0.891-1.795-1.472 0.548 0.731 1.132 1.4 1.744 2.009l0.051-0.537zM355.266 566.808c-0.009-0.018-0.025-0.082-0.043-0.19-0.038 0.037 0.003 0.113 0.043 0.19zM343.21 562.2c0.242-0.196 0.252-0.207 0.21-0.184-0.031 0.040-0.12 0.112-0.21 0.184zM670.83 564.816c-0.268-0.337-0.543-0.66-0.824-0.969 0.218 0.25 0.496 0.572 0.824 0.969zM667.177 561.69l-0.561-0.214c0.113 0.026 0.222 0.055 0.329 0.087 0.078 0.042 0.156 0.084 0.232 0.126z" />
<glyph unicode="&#xe936;" glyph-name="auto-unlock" d="M536.587 271.143c21.688 10.203 36.846 33.437 36.846 60.467 0 36.48-27.485 66.016-61.4 66.016-33.948 0-61.433-29.535-61.433-66.016 0-27.029 15.158-50.263 36.846-60.467v-96.482c0-14.499 11.061-26.385 24.587-26.385 13.493 0 24.553 11.886 24.553 26.385v96.482zM701.156 479.353c30.868-7.659 54.044-37.539 54.044-72.957v-241.938c0-41.17-31.316-74.858-69.628-74.858h-347.11c-38.312 0-69.662 33.688-69.662 74.858v241.938c0 41.17 31.349 74.858 69.662 74.858h268.116v121.098c0 52.812-42.344 95.624-94.578 95.624s-94.578-42.812-94.578-95.624h-94.578c0 105.623 84.688 191.248 189.156 191.248s189.156-85.625 189.156-191.248v-122.999z" />
<glyph unicode="&#xe937;" glyph-name="department" d="M527.515 463.515h155.178c32.561 0 58.932-26.463 58.932-59.087v-27.798h34.143c51.407 0 93.081-41.511 93.081-93.081v-99.316c0-51.407-41.511-93.081-93.081-93.081h-99.316c-51.407 0-93.081 41.511-93.081 93.081v99.316c0 51.407 41.511 93.081 93.081 93.081h34.143v27.798c0 15.511-12.502 28.057-27.901 28.057h-341.385c-15.348 0-27.901-12.598-27.901-28.108v-27.746h34.143c51.407 0 93.081-41.511 93.081-93.081v-99.316c0-51.407-41.511-93.081-93.081-93.081h-99.316c-51.407 0-93.081 41.511-93.081 93.081v99.316c0 51.407 41.511 93.081 93.081 93.081h34.143v27.746c0 32.623 26.421 59.138 58.932 59.138h155.178v55.855h-34.143c-51.407 0-93.081 41.511-93.081 93.081v99.316c0 51.407 41.511 93.081 93.081 93.081h99.316c51.407 0 93.081-41.511 93.081-93.081v-99.316c0-51.407-41.511-93.081-93.081-93.081h-34.143v-55.855zM282.376 345.6h-34.143c-34.368 0-62.051-27.717-62.051-62.051v-99.316c0-34.368 27.717-62.051 62.051-62.051h99.316c34.368 0 62.051 27.717 62.051 62.051v99.316c0 34.368-27.717 62.051-62.051 62.051h-34.143v-0.362h-31.030v0.362zM400.291 711.767v-99.316c0-34.368 27.717-62.051 62.051-62.051h99.316c34.368 0 62.051 27.717 62.051 62.051v99.316c0 34.368-27.717 62.051-62.051 62.051h-99.316c-34.368 0-62.051-27.717-62.051-62.051zM614.4 283.549v-99.316c0-34.368 27.717-62.051 62.051-62.051h99.316c34.368 0 62.051 27.717 62.051 62.051v99.316c0 34.368-27.717 62.051-62.051 62.051h-99.316c-34.368 0-62.051-27.717-62.051-62.051z" />
<glyph unicode="&#xe938;" glyph-name="keep-close" d="M585.931 387.656c-47.481-33.652-114.236-28.72-157.415 14.459s-48.111 109.934-14.459 157.415l171.874-171.874zM442.649 588.121c47.481 33.652 114.236 28.72 157.415-14.459s48.111-109.934 14.459-157.415l-171.874 171.874zM224.68 823.143c0 19.030 15.17 34.457 34.2 34.457h498.739c18.888 0 34.2-15.105 34.2-34.457v-721.728h-567.138v721.728zM514.29 323.573c89.325 0 161.736 73.567 161.736 164.316s-72.412 164.316-161.736 164.316c-89.325 0-161.736-73.567-161.736-164.316s72.412-164.316 161.736-164.316zM197.673 20.396c-14.915 0-27.007 12.091-27.007 27.007s12.091 27.007 27.007 27.007h621.152c14.915 0 27.007-12.091 27.007-27.007s-12.091-27.007-27.007-27.007h-621.152z" />
<glyph unicode="&#xe939;" glyph-name="keep-open" d="M291.505 857.6h412.308c29.689 0 53.872-24.319 53.872-54.127v-167.927c0-14.915-12.091-27.007-27.007-27.007s-27.007 12.091-27.007 27.007c0 0-0.069 168.041 0.141 168.041 0 0-246.398-0.009-378.234-0.042v-648.113c131.87 0.008 378.092 0.039 378.092 0.15v141.882c0 14.915 12.091 27.007 27.007 27.007s27.007-12.091 27.007-27.007v-141.882c0-29.852-24.053-54.166-53.872-54.166h-479.192c-18.819 0-34.075 15.105-34.075 34.457v687.271c0 19.030 15.49 34.457 34.075 34.457h66.884zM514.626 425.495h-80.941c-14.959 0-27.086 11.987-27.086 27.007 0 14.915 11.826 27.007 27.086 27.007h80.941v81.144c0 14.576 8.534 18.349 19.061 7.822l96.912-96.912c10.614-10.614 10.527-27.594 0-38.121l-96.912-96.912c-10.614-10.614-19.061-7.025-19.061 7.822v81.144zM800.565 425.495v-81.144c0-14.847-8.447-18.435-19.061-7.822l-96.912 96.912c-10.527 10.527-10.614 27.507 0 38.121l96.912 96.912c10.527 10.527 19.061 6.755 19.061-7.822v-81.144h80.941c15.26 0 27.086-12.091 27.086-27.007 0-15.019-12.127-27.007-27.086-27.007h-80.941zM163.54 20.396c-14.915 0-27.007 12.091-27.007 27.007s12.091 27.007 27.007 27.007h621.152c14.915 0 27.007-12.091 27.007-27.007s-12.091-27.007-27.007-27.007h-621.152zM258.063 425.495c22.373 0 40.51 18.137 40.51 40.51s-18.137 40.51-40.51 40.51c-22.373 0-40.51-18.137-40.51-40.51s18.137-40.51 40.51-40.51z" />
<glyph unicode="&#xe93a;" glyph-name="door-open" d="M224.68 864.837c0.003 8.766 2.613 15.147 6.717 17.845 4.906 5.553 12.104 9.052 20.256 9.052h513.193c14.897 0 26.973-11.878 26.973-26.913v-702.359c0-14.864-11.845-26.913-26.973-26.913h-181.562v-27.007h235.542c14.915 0 27.007-12.091 27.007-27.007s-12.091-27.007-27.007-27.007h-235.542v-78.065c0-18.886-13.62-26.855-29.958-18.050l-178.326 96.115h-177.326c-14.915 0-27.007 12.091-27.007 27.007s12.091 27.007 27.007 27.007h77.113l-20.149 10.86c-9.453 5.095-17.883 14.611-23.374 25.37-4.102 4.706-6.584 10.873-6.584 17.69v702.359zM324.893 837.72l241.335-130.076c9.419-5.077 17.055-21.070 17.055-36.105v-481.977h154.522v648.158h-412.912zM498.71 308.508c12.432-10.184 25.97-0.636 30.239 21.326s-2.348 48.021-14.78 58.205c-12.432 10.184-25.97 0.636-30.239-21.326s2.348-48.021 14.78-58.205z" />
<glyph unicode="&#xe93b;" glyph-name="door-close" d="M819.2 106.667h-621.227c-13.653 0-27.307-10.24-27.307-23.893s10.24-23.893 23.893-27.307h631.467c13.653 3.413 20.48 13.653 20.48 27.307s-13.653 23.893-27.307 23.893zM269.653 813.227c0 10.24 3.413 13.653 6.827 17.067 3.413 6.827 10.24 10.24 17.067 10.24h430.080c13.653 0 23.893-10.24 23.893-27.307v-658.773h47.787v709.973c0 13.653-13.653 27.307-27.307 27.307h-512c-13.653 0-20.48-3.413-23.893-10.24-3.413 0-6.827-6.827-6.827-17.067v-709.973h47.787v658.773zM334.507 796.16c-6.827 0-10.24-3.413-13.653-10.24-3.413-3.413-6.827-10.24-6.827-17.067v-610.987h385.707v610.987c0 13.653-6.827 27.307-17.067 27.307h-348.16zM634.88 451.413c-13.653 0-23.893 10.24-23.893 23.893s10.24 23.893 23.893 23.893 23.893-10.24 23.893-23.893c0-13.653-10.24-23.893-23.893-23.893z" />
<glyph unicode="&#xe93c;" glyph-name="remote" d="M238.933 840.832c0 28.112 22.771 50.902 51.379 50.902h443.376c28.376 0 51.379-22.829 51.379-50.902v-785.664c0-28.112-22.771-50.902-51.379-50.902h-443.376c-28.376 0-51.379 22.829-51.379 50.902v785.664zM273.067 755.2v-614.4h477.867v614.4h-477.867zM443.733 823.467c0-9.15 7.495-17.067 16.742-17.067h103.050c9.401 0 16.742 7.641 16.742 17.067 0 9.15-7.495 17.067-16.742 17.067h-103.050c-9.401 0-16.742-7.641-16.742-17.067zM512 277.333c-94.257 0-170.667 76.41-170.667 170.667s76.41 170.667 170.667 170.667c94.257 0 170.667-76.41 170.667-170.667s-76.41-170.667-170.667-170.667z" />
<glyph unicode="&#xe93d;" glyph-name="unlock" d="M832.602 485.214h-321.453v133.867c0 112.696-91.678 204.386-204.374 204.386s-204.374-91.69-204.374-204.386v-35.36h81.754v35.36c0 67.613 55.007 122.62 122.62 122.62 67.601 0 122.608-55.007 122.608-122.62v-134.434c-26.747-2.8-47.67-25.164-47.67-52.656v-267.616c0-29.394 23.829-53.223 53.223-53.223h397.667c29.394 0 53.223 23.829 53.223 53.223v267.616c0 29.394-23.829 53.223-53.223 53.223z" />
<glyph unicode="&#xe93e;" glyph-name="time-group" d="M512 775.314v29.535c196.789 0 356.848-160.059 356.848-356.848s-160.059-356.848-356.848-356.848c-196.789 0-356.848 160.059-356.848 356.848s160.059 356.848 356.848 356.848v-29.535c-180.478 0-327.314-146.836-327.314-327.314s146.836-327.314 327.314-327.314c180.478 0 327.314 146.836 327.314 327.314s-146.836 327.314-327.314 327.314zM524.924 648.315v-213.901h181.754c8.156 0 14.767-6.612 14.767-14.767s-6.612-14.767-14.767-14.767h-196.521c-8.156 0-14.767 6.612-14.767 14.767v228.668c0 8.156 6.612 14.767 14.767 14.767s14.767-6.612 14.767-14.767z" />
<glyph unicode="&#xe940;" glyph-name="pc" d="M919.565 838.058h-815.132c-22.037 0-40.067-18.030-40.067-40.067v-520.928c0-22.037 18.030-40.067 40.067-40.067h345.361l-10.544-107.886h-188.725l-10.544-71.168h544.038l-11.598 71.168h-187.671l-10.544 107.886h345.361c22.037 0 40.067 18.030 40.067 40.067v520.928c0.001 22.037-18.030 40.067-40.067 40.067zM935.468 300.265h-846.936v481.621h846.936v-481.621z" />
<glyph unicode="&#xe941;" glyph-name="wifi" horiz-adv-x="1025" d="M512.93 63.095l-60.332 60.353c15.442 15.437 36.772 24.985 60.332 24.985s44.89-9.548 60.332-24.985v0l-60.332-60.353zM60.375 494.337l-60.353 60.332c283.271 283.271 742.546 283.271 1025.817 0l-60.353-60.332c-249.947 249.926-655.163 249.926-905.11 0zM196.143 358.568l-60.353 60.332c208.282 208.282 545.997 208.282 754.28 0l-60.353-60.332c-174.938 174.938-458.614 174.938-633.573 0zM346.974 207.717l-60.332 60.332c124.974 124.974 327.603 124.974 452.576 0l-60.353-60.332c-91.65 91.629-240.219 91.629-331.869 0z" />
<glyph unicode="&#xe94f;" glyph-name="female" d="M874.906 809.062c-63.005 63.010-150.049 101.983-246.195 101.983-192.283 0-348.16-155.877-348.16-348.16 0-85.951 31.146-164.627 82.767-225.359l-0.411 0.496-85.606-85.606-125.133 125.542c-4.639 4.639-11.047 7.508-18.125 7.508-14.156 0-25.632-11.476-25.632-25.632 0-7.078 2.869-13.486 7.508-18.125l125.952-125.952-187.187-187.187c-4.639-4.639-7.508-11.047-7.508-18.125 0-14.156 11.476-25.632 25.632-25.632 7.078 0 13.486 2.869 18.125 7.508l187.187 187.187 125.952-125.952c4.639-4.639 11.047-7.508 18.125-7.508 14.156 0 25.632 11.476 25.632 25.632 0 7.078-2.869 13.486-7.508 18.125l-125.952 125.952 85.402 85.402c60.293-51.4 139.112-82.671 225.235-82.671 192.283 0 348.16 155.877 348.16 348.16 0 94.28-37.475 179.808-98.342 242.5l0.083-0.085zM839.68 352.973c-53.746-53.777-128.011-87.040-210.045-87.040-164.006 0-296.96 132.954-296.96 296.96s132.954 296.96 296.96 296.96c82.034 0 156.3-33.264 210.044-87.039l0.001-0.001c54.15-53.527 87.686-127.807 87.686-209.92s-33.536-156.394-87.658-209.892l-0.028-0.028z" />
<glyph unicode="&#xe951;" glyph-name="icon_male" d="M944.947 904.704h-278.323c-14.138 0-25.6-11.462-25.6-25.6s11.462-25.6 25.6-25.6h216.474l-252.109-252.314c-61.489 54.246-142.742 87.358-231.73 87.358-193.867 0-351.027-157.16-351.027-351.027s157.16-351.027 351.027-351.027c193.867 0 351.027 157.16 351.027 351.027 0 86.89-31.57 166.406-83.865 227.704l0.407-0.489 252.518 251.904v-215.859c0-14.138 11.462-25.6 25.6-25.6s25.6 11.462 25.6 25.6v0 277.299c0.013 0.305 0.020 0.664 0.020 1.024 0 14.138-11.462 25.6-25.6 25.6-0.007 0-0.014 0-0.022 0h0.001zM478.413 52.736c-23.083-6.443-49.59-10.146-76.962-10.146-164.006 0-296.96 132.954-296.96 296.96s132.954 296.96 296.96 296.96c136.728 0 251.873-92.404 286.394-218.17l0.488-2.084c6.284-22.838 9.896-49.061 9.896-76.128 0-136.724-92.145-251.926-217.721-286.894l-2.094-0.498z" />
<glyph unicode="&#xe953;" glyph-name="map" horiz-adv-x="1312" d="M295.648-61.664c0.288-0.192 0.672-0.096 0.96-0.288 2.131-1.207 4.665-1.955 7.365-2.047l0.027-0.001c1.504 0.003 2.958 0.213 4.337 0.603l-0.113-0.027 347.776 94.912 347.776-94.912c1.266-0.363 2.72-0.573 4.222-0.576h0.002c2.72 0.084 5.245 0.846 7.435 2.12l-0.075-0.040c0.32 0.16 0.672 0.096 0.96 0.288l288 176c4.616 2.869 7.643 7.912 7.643 13.662 0 1.55-0.22 3.049-0.631 4.467l0.028-0.113-159.488 560c-1.943 6.784-8.090 11.665-15.377 11.665-2.887 0-5.595-0.766-7.932-2.107l0.078 0.041-158.784-89.088c-4.52-2.886-7.473-7.876-7.473-13.556 0-8.854 7.178-16.032 16.032-16.032 2.607 0 5.069 0.622 7.245 1.726l-0.091-0.042 141.088 79.2 150.624-528.832-256.48-156.768-60.928 487.392c-1.021 7.948-7.745 14.027-15.888 14.027-8.843 0-16.011-7.169-16.011-16.011 0-0.699 0.045-1.388 0.132-2.064l-0.008 0.080 61.024-488.288-317.12 86.56v87.36c0 8.837-7.163 16-16 16s-16-7.163-16-16v0-87.36l-317.152-86.56 61.024 488.288c0.079 0.596 0.123 1.285 0.123 1.984 0 8.843-7.169 16.011-16.011 16.011-8.143 0-14.867-6.079-15.88-13.947l-0.008-0.080-60.896-487.392-256.48 156.736 150.624 528.8 141.088-79.2c2.085-1.062 4.546-1.684 7.153-1.684 8.854 0 16.032 7.178 16.032 16.032 0 5.68-2.954 10.67-7.409 13.518l-0.064 0.039-158.816 89.12c-2.265 1.319-4.985 2.098-7.887 2.098-7.281 0-13.417-4.902-15.287-11.586l-0.027-0.112-159.488-560c-0.393-1.318-0.619-2.831-0.619-4.398 0-5.741 3.036-10.773 7.59-13.578l0.069-0.040 287.968-176zM645.152 212.224c2.843-2.63 6.659-4.243 10.852-4.243 4.143 0 7.919 1.575 10.761 4.159l-0.013-0.012c10.656 9.696 261.248 239.648 261.248 475.872 0 152.544-119.456 272-272 272s-272-119.456-272-272c0-232.128 250.496-465.92 261.152-475.776zM656 928c136.8 0 240-103.168 240-240 0-195.104-191.776-394.784-239.904-441.824-48.032 47.584-240.096 249.888-240.096 441.824 0 136.832 103.2 240 240 240zM800 688c0 79.392-64.608 144-144 144s-144-64.608-144-144 64.608-144 144-144 144 64.608 144 144zM656 576c-61.76 0-112 50.24-112 112s50.24 112 112 112 112-50.24 112-112-50.24-112-112-112z" />
<glyph unicode="&#xe957;" glyph-name="pause" d="M512 917.333c-257.267 0-469.334-212.069-469.334-469.333s212.067-469.332 469.332-469.332c257.265 0 469.334 212.067 469.334 469.332s-212.069 469.334-469.334 469.334zM512-64c-283.307 0-512 228.693-512 512s228.693 512 512 512c283.307 0 512-228.693 512-512s-228.693-512-512-512zM384 618.667h85.333v-341.333h-85.333zM554.667 618.667h85.333v-341.333h-85.333z" />
<glyph unicode="&#xe958;" glyph-name="play" horiz-adv-x="1025" d="M512 917.333c-257.267 0-469.334-212.069-469.334-469.333s212.067-469.332 469.332-469.332c257.265 0 469.334 212.067 469.334 469.332s-212.069 469.334-469.334 469.334zM512-64c-283.307 0-512 228.693-512 512s228.693 512 512 512c283.307 0 512-228.693 512-512s-228.693-512-512-512zM631.884 463.898c10.619-7.949 10.619-23.847 0-31.795l-226.646-151.035c-10.619-7.948-21.238-2.65-21.238 10.598v312.666c0 13.25 10.62 18.549 21.238 10.6l226.646-151.035z" />
<glyph unicode="&#xe95e;" glyph-name="stop" d="M512 917.333c-257.267 0-469.334-212.069-469.334-469.333s212.067-469.332 469.332-469.332c257.265 0 469.334 212.067 469.334 469.332s-212.069 469.334-469.334 469.334zM512-64c-283.307 0-512 228.693-512 512s228.693 512 512 512c283.307 0 512-228.693 512-512s-228.693-512-512-512zM384 576h256v-256h-256z" />
<glyph unicode="&#xe964;" glyph-name="wifi-a" d="M509.542 198.554c0.289 0.005 0.63 0.008 0.972 0.008 32.688 0 59.187-26.499 59.187-59.187s-26.499-59.187-59.187-59.187c-32.688 0-59.187 26.499-59.187 59.187 0 16.304 6.592 31.069 17.257 41.773l-0.002-0.002c10.473 10.57 24.923 17.183 40.918 17.408h0.042zM509.542 249.754c-0.016 0-0.035 0-0.053 0-60.965 0-110.387-49.422-110.387-110.387s49.422-110.387 110.387-110.387c60.965 0 110.387 49.422 110.387 110.387 0 30.469-12.345 58.055-32.305 78.029l0.001-0.001c-19.917 19.99-47.47 32.358-77.912 32.358-0.041 0-0.082 0-0.123 0h0.006zM730.522 334.95c-7.051 0.045-13.418 2.934-18.021 7.576l-0.002 0.002c-51.918 52.076-123.726 84.296-203.059 84.296s-151.142-32.22-203.052-84.289l-0.007-0.007c-4.639-4.639-11.047-7.508-18.125-7.508-14.156 0-25.632 11.476-25.632 25.632 0 7.078 2.869 13.486 7.508 18.125v0c61.268 61.11 145.824 98.896 239.206 98.896s177.939-37.787 239.214-98.904l-0.007 0.007c4.586-4.625 7.419-10.993 7.419-18.023 0-14.083-11.371-25.51-25.433-25.599h-0.009zM860.16 483.43c-7.051 0.045-13.418 2.934-18.021 7.576l-0.002 0.002c-85.245 85.26-203.017 137.996-333.107 137.996s-247.863-52.736-333.107-137.996v0c-4.639-4.639-11.047-7.508-18.125-7.508-14.156 0-25.632 11.476-25.632 25.632 0 7.078 2.869 13.486 7.508 18.125v0c94.572 94.344 225.101 152.682 369.254 152.682s274.683-58.338 369.265-152.692l-0.011 0.011c4.708-4.645 7.624-11.095 7.624-18.227 0-14.138-11.462-25.6-25.6-25.6-0.016 0-0.033 0-0.049 0h0.003zM990.822 632.32c-7.051 0.045-13.418 2.934-18.021 7.576l-0.002 0.002c-118.571 118.445-282.309 191.696-463.155 191.696s-344.583-73.251-463.16-191.702l0.005 0.005c-4.434-3.781-10.23-6.081-16.564-6.081-14.138 0-25.6 11.462-25.6 25.6 0 6.129 2.154 11.755 5.746 16.162l-0.037-0.046c127.887 127.639 304.428 206.569 499.405 206.569s371.519-78.93 499.417-206.581l-0.012 0.012c4.351-4.58 7.027-10.787 7.027-17.619 0-13.945-11.15-25.286-25.021-25.594l-0.029-0.001z" />
<glyph unicode="&#xe972;" glyph-name="anzhuo" d="M768 618.667h-512c-13.653 0-20.48-10.24-20.48-20.48v-430.080c0-13.653 10.24-20.48 20.48-20.48h92.16v-146.773c0-34.133 27.307-61.44 61.44-61.44v0c34.133 0 61.44 27.307 61.44 61.44v146.773h85.333v-146.773c0-34.133 27.307-61.44 61.44-61.44v0c34.133 0 61.44 27.307 61.44 61.44v146.773h92.16c13.653 0 20.48 10.24 20.48 20.48v433.493c0 10.24-10.24 17.067-23.893 17.067zM150.187 618.667v0c-34.133 0-61.44-27.307-61.44-61.44v-245.76c0-34.133 27.307-61.44 61.44-61.44v0c34.133 0 61.44 27.307 61.44 61.44v245.76c0 34.133-27.307 61.44-61.44 61.44zM877.227 618.667v0c-34.133 0-61.44-27.307-61.44-61.44v-245.76c0-34.133 27.307-61.44 61.44-61.44v0c34.133 0 61.44 27.307 61.44 61.44v245.76c0 34.133-27.307 61.44-61.44 61.44zM259.413 649.387h505.173c13.653 0 23.893 13.653 20.48 23.893-13.653 78.507-68.267 146.773-133.12 187.733l44.373 75.093c3.413 6.827 0 13.653-3.413 13.653-6.827 3.413-13.653 0-13.653-3.413l-44.373-78.507c-37.547 13.653-75.093 23.893-116.053 23.893-44.373 0-81.92-10.24-116.053-23.893l-44.373 78.507c-3.413 6.827-10.24 6.827-13.653 3.413-10.24 0-13.653-6.827-10.24-13.653l40.96-75.093c-68.267-40.96-119.467-105.813-133.12-184.32-3.413-13.653 6.827-27.307 17.067-27.307zM662.187 765.44c0-13.653-10.24-23.893-23.893-23.893s-23.893 10.24-23.893 23.893c0 13.653 10.24 23.893 23.893 23.893s23.893-10.24 23.893-23.893zM385.707 792.747c13.653 0 23.893-10.24 23.893-23.893s-10.24-23.893-23.893-23.893c-13.653 0-23.893 10.24-23.893 23.893 0 10.24 10.24 23.893 23.893 23.893z" />
<glyph unicode="&#xe976;" glyph-name="attention" d="M717.7 317.3c7.5 10.9 4.7 25.9-6.3 33.4-35.6 24.4-75.9 41-120.4 49.9 96.6 36.6 165.2 130 165.2 239.4 0 141.3-114.6 255.9-255.9 255.9s-255.9-114.7-255.9-256c0-111.6 71.4-206.5 171-241.5-45.4-9.4-87.3-25.7-125.4-48.8-51-31-94.9-74.1-130.4-128.1-59.9-91.1-75.1-181.2-75.7-185l-1.3-8.3c-2-13.1 7-25.4 20.1-27.4 1.2-0.2 2.5-0.3 3.7-0.3 11.6 0 21.9 8.5 23.7 20.4l1.2 8c0.5 2.9 14.8 84.7 68.4 166.3 71.9 109.3 177.1 164.8 312.6 164.8 66.7 0 124.6-16.5 172.1-48.9 10.9-7.6 25.8-4.8 33.3 6.2zM292.4 639.9c0 55.5 21.6 107.7 60.9 147s91.5 60.9 147 60.9 107.7-21.6 147-60.9 60.9-91.5 60.9-147-21.6-107.7-60.9-147-91.5-60.9-147-60.9-107.7 21.6-147 60.9-60.9 91.4-60.9 147zM936.5 175.9h-103.6v103.6c0 13.3-10.7 24-24 24s-24-10.7-24-24v-103.6h-103.6c-13.3 0-24-10.7-24-24s10.7-24 24-24h103.6v-103.6c0-13.3 10.7-24 24-24s24 10.7 24 24v103.6h103.6c13.3 0 24 10.7 24 24s-10.8 24-24 24z" />
<glyph unicode="&#xe979;" glyph-name="apple" d="M713.387 936.107c0 6.827 0 10.24 0 17.067-116.053-10.24-208.213-105.813-208.213-225.28 0-6.827 0-10.24 0-17.067 116.053 6.827 208.213 105.813 208.213 225.28zM781.653 417.28c0 81.92 40.96 150.187 105.813 187.733-40.96 68.267-109.227 109.227-191.147 109.227-88.747 0-98.987-44.373-170.667-44.373s-85.333 44.373-170.667 44.373c-153.6 0-245.76-150.187-245.76-314.027 0-232.107 163.84-457.387 262.827-457.387 58.027 0 81.92 37.547 157.013 44.373 75.093-3.413 98.987-44.373 157.013-44.373 75.093 0 180.907 116.053 232.107 273.067-81.92 34.133-136.533 109.227-136.533 201.387z" />
<glyph unicode="&#xe97d;" glyph-name="browser" d="M981.759 648.628c-25.675 60.713-62.432 115.235-109.248 162.051-46.816 46.806-101.338 83.563-162.051 109.248-62.197 26.299-128.21 39.776-196.239 40.062-0.737 0-1.474 0.010-2.221 0.010s-1.484-0.010-2.221-0.010c-68.029-0.287-134.043-13.763-196.239-40.062-60.713-25.685-115.235-62.442-162.051-109.248-46.816-46.816-83.573-101.338-109.248-162.051-26.585-62.872-40.073-129.643-40.073-198.46 0-68.828 13.487-135.598 40.073-198.46 25.675-60.713 62.432-115.235 109.248-162.051s101.338-83.573 162.051-109.248c62.197-26.309 128.21-39.776 196.239-40.062 0.737 0 1.474-0.010 2.221-0.010s1.484 0.010 2.221 0.010c68.029 0.287 134.043 13.753 196.239 40.062 60.713 25.675 115.235 62.432 162.051 109.248s83.573 101.338 109.248 162.051c26.585 62.862 40.073 129.632 40.073 198.46 0 68.817-13.487 135.588-40.073 198.46zM180.439 781.73c43.061 43.071 93.213 76.881 149.045 100.499 19.156 8.094 38.701 14.879 58.595 20.302-24.825-24.866-47.553-57.469-67.405-97.173-12.72-25.439-23.915-53.089-33.483-82.509-44.135 11.768-84.576 27.036-119.665 45.445 4.206 4.554 8.514 9.036 12.914 13.436zM79.94 632.685c15.749 37.228 36.020 71.918 60.559 103.671 39.295-21.561 85.057-39.295 135.158-52.711-17.263-65.348-27.087-137.757-28.591-213.011h-203.515c2.374 56.087 14.582 110.507 36.389 162.051zM140.489 163.98c-24.529 31.753-44.8 66.454-60.549 103.671-21.807 51.544-34.015 105.963-36.389 162.051h203.515c1.504-75.244 11.318-147.643 28.591-212.991-50.091-13.416-95.843-31.16-135.169-52.731zM329.483 18.108c-55.832 23.618-105.984 57.428-149.045 100.489-4.4 4.4-8.708 8.882-12.914 13.436 35.099 18.44 75.52 33.718 119.655 45.465 9.578-29.42 20.773-57.070 33.493-82.519 19.852-39.704 42.58-72.307 67.405-97.173-19.893 5.424-39.438 12.208-58.595 20.302zM491.534-16.705c-20.998 4.155-41.628 14.725-61.562 31.589-27.005 22.84-51.462 55.954-72.685 98.401-11.379 22.748-21.459 47.43-30.157 73.688 51.503 10.765 107.038 17.018 164.404 18.215v-221.894zM491.534 246.121c-61.337-1.238-120.863-8.053-176.111-19.852-16.506 62.135-25.931 131.3-27.425 203.433h203.536v-183.581zM491.534 470.635h-203.536c1.494 72.153 10.929 141.329 27.435 203.464 55.299-11.829 114.846-18.655 176.101-19.903v-183.561zM491.534 695.138c-57.295 1.208-112.85 7.46-164.394 18.246 8.698 26.248 18.778 50.92 30.147 73.668 21.223 42.447 45.68 75.551 72.685 98.401 19.934 16.854 40.564 27.435 61.562 31.589v-221.904zM694.517 882.229c55.832-23.618 105.984-57.428 149.045-100.499 4.39-4.39 8.688-8.862 12.894-13.405-34.67-18.123-75.438-33.616-119.686-45.425-9.558 29.4-20.753 57.029-33.462 82.458-19.862 39.715-42.59 72.317-67.415 97.183 19.903-5.434 39.459-12.208 58.625-20.313zM532.466 917.042c20.988-4.165 41.608-14.736 61.531-31.589 27.015-22.85 51.472-55.954 72.696-98.401 11.359-22.728 21.438-47.389 30.136-73.617-51.892-10.857-107.785-17.079-164.363-18.286v221.894zM532.466 654.195c61.245 1.208 120.259 7.859 176.101 19.842 16.506-62.125 25.941-131.29 27.435-203.403h-203.536v183.561zM532.466 429.702h203.536c-1.504-72.143-10.929-141.329-27.455-203.474-55.289 11.829-114.835 18.655-176.080 19.903v183.571zM593.998 14.885c-19.924-16.854-40.543-27.435-61.531-31.589v221.894c57.285-1.208 112.84-7.46 164.374-18.246-8.698-26.238-18.778-50.909-30.147-73.658-21.223-42.447-45.68-75.561-72.696-98.401zM843.561 118.597c-43.061-43.061-93.213-76.871-149.045-100.489-19.167-8.105-38.722-14.879-58.625-20.313 24.825 24.866 47.553 57.469 67.415 97.183 12.72 25.429 23.904 53.079 33.483 82.489 44.145-11.748 84.597-27.026 119.686-45.435-4.206-4.554-8.514-9.036-12.914-13.436zM944.060 267.651c-15.749-37.228-36.020-71.918-60.559-103.681-39.305 21.561-85.067 39.295-135.179 52.711 17.284 65.359 27.107 137.768 28.612 213.022h203.515c-2.374-56.087-14.582-110.507-36.389-162.051zM776.934 470.635c-1.504 75.233-11.328 147.632-28.601 212.981 50.848 13.63 96.181 31.323 135.169 52.741 24.539-31.753 44.811-66.443 60.559-103.671 21.807-51.544 34.015-105.963 36.389-162.051h-203.515z" />
<glyph unicode="&#xe983;" glyph-name="copy-a" d="M298.667 64h512c48.853 0 85.333 38.315 85.333 85.333v512c0 23.564-19.103 42.667-42.667 42.667v0c-11.782 0-21.333 9.551-21.333 21.333s9.551 21.333 21.333 21.333v0c47.128 0 85.333-38.205 85.333-85.333v-512c0-77.952-53.163-128-128-128h-512c-47.128 0-85.333 38.205-85.333 85.333v0c-0.001 0.063-0.001 0.138-0.001 0.213 0 11.783 9.552 21.334 21.334 21.334 11.708 0 21.213-9.431 21.333-21.11v-0.011c0-23.979 19.115-43.093 42.667-43.093zM165.931 874.667h564.096c44.544 0 80.64-36.096 80.64-80.597v-564.096c0-0.013 0-0.028 0-0.043 0-44.513-36.085-80.597-80.597-80.597h-564.096c-0.013 0-0.028 0-0.043 0-44.513 0-80.597 36.085-80.597 80.597v0 564.096c0 44.544 36.096 80.64 80.597 80.64zM168.021 832c-22.103 0-40.021-17.918-40.021-40.021v0-559.957c0-22.101 17.92-40.021 40.021-40.021h559.957c22.101 0 40.021 17.92 40.021 40.021v559.957c0 0.013 0 0.028 0 0.043 0 22.080-17.899 39.979-39.979 39.979-0.015 0-0.030 0-0.045 0h-559.955zM426.667 533.333v149.333c0 11.782 9.551 21.333 21.333 21.333s21.333-9.551 21.333-21.333v0-149.333h149.333c11.782 0 21.333-9.551 21.333-21.333s-9.551-21.333-21.333-21.333v0h-149.333v-149.333c0-11.782-9.551-21.333-21.333-21.333s-21.333 9.551-21.333 21.333v0 149.333h-149.333c-11.782 0-21.333 9.551-21.333 21.333s9.551 21.333 21.333 21.333v0h149.333z" />
<glyph unicode="&#xe98d;" glyph-name="display" d="M998.736 455.286c-2.21 2.579-55.228 63.926-141.329 125.989-50.736 36.563-102.464 65.737-153.752 86.705-64.704 26.452-128.916 39.868-190.847 39.868s-126.143-13.416-190.847-39.868c-51.288-20.968-103.016-50.142-153.742-86.705-86.111-62.064-139.129-123.411-141.339-125.989-6.58-7.665-6.58-18.982 0-26.657 2.21-2.579 55.228-63.916 141.339-125.979 50.725-36.573 102.453-65.747 153.742-86.715 64.704-26.452 128.916-39.868 190.847-39.868s126.143 13.416 190.847 39.868c51.288 20.968 103.016 50.142 153.752 86.715 86.101 62.064 139.118 123.4 141.329 125.979 6.58 7.675 6.58 18.993 0 26.657zM359.343 638.519c52.27 18.86 103.794 28.397 153.465 28.397s101.205-9.537 153.475-28.407c32.93-37.351 51.032-85.252 51.032-135.189 0-54.645-21.264-106.004-59.884-144.624s-89.979-59.884-144.624-59.884-106.004 21.264-144.624 59.884c-38.609 38.62-59.884 89.979-59.884 144.624 0 49.917 18.113 97.838 51.043 135.199zM833.472 335.856c-48.116-34.69-97.009-62.278-145.299-82.028-59.771-24.437-118.775-36.829-175.364-36.829-56.425 0-115.245 12.321-174.832 36.614-48.198 19.647-96.989 47.123-145.013 81.66-59.198 42.559-102.76 85.6-122.787 106.69 20.036 21.090 63.588 64.131 122.787 106.69 32.531 23.393 65.41 43.552 98.227 60.211-15.575-32.674-23.823-68.654-23.823-105.544 0-65.573 25.531-127.217 71.877-173.563 46.346-46.356 107.99-71.877 173.563-71.877s127.217 25.521 173.563 71.877c46.356 46.346 71.877 107.99 71.877 173.563 0 36.89-8.238 72.87-23.792 105.534 32.807-16.67 65.676-36.819 98.207-60.201 59.198-42.57 102.76-85.61 122.787-106.7-19.893-20.968-63.046-63.619-121.978-106.096zM615.067 503.32c0-56.456-45.803-102.259-102.259-102.259s-102.259 45.803-102.259 102.259c0 56.446 45.803 102.259 102.259 102.259s102.259-45.813 102.259-102.259z" />
<glyph unicode="&#xe98f;" glyph-name="download-cloud" d="M1022.955 437.429c0-100.192-81.517-181.698-181.719-181.698h-185.638c-11.297 0-20.466 9.169-20.466 20.466 0 11.308 9.169 20.466 20.466 20.466h185.638c77.628 0 140.786 63.148 140.786 140.766 0 77.423-62.841 140.449-140.203 140.766-0.42-0.031-0.819-0.051-1.218-0.061-5.945-0.143-11.686 2.292-15.687 6.703-4.001 4.4-5.894 10.335-5.168 16.25 1.33 10.806 1.944 19.76 1.944 28.192 0 60.764-23.659 117.885-66.617 160.833-42.969 42.969-100.090 66.617-160.843 66.617-47.369 0-92.742-14.449-131.208-41.782-37.617-26.739-65.952-63.701-81.926-106.884-2.425-6.539-8.012-11.4-14.828-12.894-6.815-1.484-13.927 0.604-18.86 5.546-19.289 19.33-44.944 29.973-72.245 29.973-56.323 0-102.146-45.813-102.146-102.126 0-0.317 0.041-0.982 0.092-1.627 0.061-0.921 0.123-1.832 0.153-2.763 0.338-9.466-5.864-17.928-15.002-20.456-32.357-8.933-61.542-28.55-82.182-55.218-21.305-27.517-32.572-60.508-32.572-95.413 0-86.244 70.189-156.423 156.443-156.423h169.981c11.297 0 20.466-9.159 20.466-20.466 0-11.297-9.169-20.466-20.466-20.466h-169.981c-108.829 0-197.375 88.536-197.375 197.355 0 44.053 14.224 85.712 41.127 120.474 22.809 29.461 53.898 52.086 88.71 64.816 5.065 74.323 67.149 133.245 142.751 133.245 28.387 0 55.504-8.217 78.651-23.526 19.658 39.868 48.842 74.169 85.497 100.212 45.435 32.296 99.005 49.354 154.918 49.354 71.693 0 139.088-27.916 189.782-78.6 50.695-50.695 78.61-118.090 78.61-189.782 0-3.704-0.102-7.47-0.297-11.369 90.307-10.479 160.628-87.421 160.628-180.481zM629.259 139.289l-102.024-102.013c-3.991-4.001-9.23-5.997-14.47-5.997s-10.479 1.995-14.47 5.997l-102.024 102.013c-7.992 7.992-7.992 20.947 0 28.939s20.947 8.002 28.939 0l67.088-67.078v358.7c0 11.297 9.159 20.466 20.466 20.466s20.466-9.169 20.466-20.466v-358.7l67.088 67.078c7.992 8.002 20.947 7.992 28.939 0s7.992-20.947 0-28.939z" />
<glyph unicode="&#xe993;" glyph-name="enable" d="M496.427 303.147l237.397 326.827c3.927 5.364 10.201 8.809 17.28 8.809 11.793 0 21.353-9.56 21.353-21.353 0-4.714-1.528-9.071-4.115-12.604l0.042 0.060-250.795-345.173c-3.17-4.367-7.875-7.452-13.308-8.47l-0.132-0.020c-1.279-0.273-2.749-0.429-4.256-0.429-5.512 0-10.536 2.091-14.322 5.522l0.018-0.016-183.765 156.843c-4.337 3.922-7.050 9.569-7.050 15.851 0 11.788 9.556 21.343 21.343 21.343 5.506 0 10.526-2.085 14.312-5.509l-0.018 0.016 165.973-141.696zM512-21.333c-259.2 0-469.333 210.133-469.333 469.333s210.133 469.333 469.333 469.333 469.333-210.133 469.333-469.333-210.133-469.333-469.333-469.333zM512 17.792c237.611 0 430.208 192.597 430.208 430.208s-192.555 430.208-430.208 430.208-430.208-192.555-430.208-430.208 192.555-430.208 430.208-430.208z" />
<glyph unicode="&#xe9a1;" glyph-name="hide" d="M872.327 455.409c-4.011-4.175-9.384-6.283-14.756-6.283-5.106 0-10.213 1.893-14.183 5.71-28.427 27.322-74.364 66.76-131.73 99.506-67.753 38.671-134.299 58.277-197.764 58.277-59.771 0-180.982-19.494-321.298-150.027-8.279-7.695-21.223-7.225-28.919 1.054-7.705 8.268-7.235 21.223 1.044 28.919 64.622 60.119 195.922 160.987 349.173 160.987 70.67 0 144.041-21.418 218.056-63.66 61.010-34.823 109.698-76.615 139.804-105.544 8.146-7.828 8.412-20.783 0.573-28.939zM998.736 493.169c-2.21-2.579-55.228-63.916-141.329-125.989-50.736-36.563-102.464-65.737-153.752-86.705-64.704-26.452-128.916-39.868-190.847-39.868s-126.143 13.416-190.847 39.868c-51.288 20.968-103.016 50.142-153.742 86.705-86.111 62.074-139.129 123.411-141.339 125.989-7.368 8.575-6.375 21.5 2.2 28.857 8.586 7.368 21.5 6.375 28.857-2.2 0.512-0.594 52.618-60.774 135.015-120.024 48.034-34.526 96.825-62.002 145.023-81.65 59.587-24.293 118.407-36.614 174.832-36.614 56.589 0 115.593 12.392 175.364 36.829 48.29 19.74 97.183 47.338 145.299 82.018 82.192 59.249 133.695 118.847 134.207 119.44 7.358 8.575 20.282 9.568 28.857 2.2 8.575-7.358 9.568-20.282 2.2-28.857z" />
<glyph unicode="&#xe9ab;" glyph-name="lock-b" d="M894.42 580.697h-122.367v101.962c0 65.43-25.47 126.941-71.724 173.195s-107.764 71.724-173.195 71.724-126.941-25.47-173.195-71.724-71.724-107.764-71.724-173.195v-101.962h-122.367c-11.308 0-20.466-9.169-20.466-20.466v-571.343c0-11.297 9.159-20.466 20.466-20.466h734.57c11.308 0 20.466 9.169 20.466 20.466v571.343c0 11.297-9.159 20.466-20.466 20.466zM323.149 682.659c0 54.501 21.213 105.728 59.741 144.255 38.517 38.517 89.744 59.73 144.245 59.73s105.728-21.213 144.245-59.73c38.527-38.527 59.741-89.754 59.741-144.255v-101.962h-407.972v101.962zM873.954 9.355h-693.638v530.41h693.638v-530.41zM588.349 315.374c0-18.072-7.972-34.137-20.405-45.332v-56.691c0-22.543-18.276-40.82-40.809-40.82s-40.809 18.276-40.809 40.82v56.691c-12.433 11.195-20.405 27.261-20.405 45.332 0 33.81 27.404 61.214 61.214 61.214 33.82 0 61.214-27.404 61.214-61.214z" />
<glyph unicode="&#xe9b1;" glyph-name="bad" d="M743.328 928.96c71.232 0 127.008-32.96 157.568-93.632 2.784-5.504 3.872-10.944 4.928-16.256 2.24-11.040 5.6-27.776 30.432-57.536 36.32-43.52 29.984-90.080 24.896-127.488-1.312-9.76-2.656-19.456-3.232-29.024-1.856-31.648 3.968-41.184 19.488-66.656 3.136-5.216 6.592-10.848 10.272-17.184 23.68-40.896 22.752-90.912-2.464-133.792-28.96-49.248-82.624-78.624-143.488-78.624-51.552 0-108.256 1.12-141.408 1.952 8.64-50.048 25.44-154.528 25.44-210.656 0-92.64-67.040-125.504-124.448-125.504-63.68 0-113.536 58.688-113.536 133.6 0 57.92 0 65.344-22.976 97.088-60.608 83.776-122.464 142.272-150.304 142.272h-196.736c-49.056 0-88.992 39.392-88.992 87.776v405.856c0 48.416 39.904 87.808 88.992 87.808h133.888c12.896 0 23.392-10.368 23.392-23.104v-512.224h39.424c62.176 0 144.704-101.28 188.416-161.632 31.68-43.744 31.68-63.968 31.68-123.904 0-48.192 29.92-87.424 66.784-87.424 23.296 0 77.632 7.712 77.632 79.328 0 69.824-29.344 228.704-29.664 230.304-1.28 6.848 0.64 13.92 5.28 19.2 4.608 5.28 10.688 8.288 18.464 8 0.864 0 90.72-2.656 168.672-2.656 44.032 0 82.528 20.832 103.008 55.648 16.768 28.48 17.632 61.28 2.304 87.712-3.456 6.016-6.72 11.392-9.792 16.32-16.704 27.456-28.736 47.264-26.048 93.12 0.608 10.752 2.080 21.6 3.552 32.512 4.672 34.368 8.704 64.064-14.624 92.032-32.352 38.784-37.28 63.296-40.192 77.92-0.416 1.984-0.672 3.712-1.408 5.568-15.392 30.624-47.872 67.136-115.168 67.136h-316.704c-12.896 0-23.392 10.336-23.392 23.072 0 12.768 10.496 23.104 23.392 23.104l316.672-0.032zM117.76 393.632h110.496v489.12h-110.496c-23.232 0-42.176-18.656-42.176-41.632v-405.92c-0.032-22.912 18.912-41.568 42.176-41.568v0z" />
<glyph unicode="&#xe9b2;" glyph-name="good" d="M743.328-25.536h-316.704c-12.896 0-23.392 10.368-23.392 23.104s10.496 23.072 23.392 23.072h316.704c67.296 0 99.808 36.512 115.168 67.136 0.768 1.856 1.024 3.552 1.408 5.568 2.912 14.624 7.84 39.168 40.192 77.92 23.328 27.968 19.328 57.664 14.624 92.032-1.472 10.912-2.944 21.76-3.552 32.512-2.688 45.856 9.344 65.664 26.048 93.12 3.040 4.928 6.304 10.304 9.792 16.32 15.328 26.432 14.464 59.232-2.304 87.712-20.48 34.816-59.008 55.648-103.008 55.648-77.952 0-167.808-2.656-168.672-2.656-7.776-0.288-13.888 2.72-18.464 8-4.64 5.28-6.528 12.352-5.28 19.2 0.32 1.6 29.664 160.48 29.664 230.304 0 71.616-54.336 79.328-77.632 79.328-36.832 0-66.784-39.2-66.784-87.424 0-59.936 0-80.16-31.68-123.904-43.712-60.352-126.24-161.632-188.416-161.632h-39.392v-512.224c0-12.768-10.496-23.104-23.392-23.104h-133.888c-49.056 0-88.992 39.392-88.992 87.808v405.888c0 48.384 39.904 87.776 88.992 87.776h196.704c27.84 0 89.696 58.496 150.304 142.272 22.976 31.712 22.976 39.168 22.976 97.088 0 74.944 49.856 133.6 113.536 133.6 57.408 0 124.448-32.896 124.448-125.504 0-56.128-16.8-160.576-25.44-210.656 33.184 0.8 89.856 1.952 141.408 1.952 60.864 0 114.56-29.376 143.488-78.624 25.216-42.88 26.144-92.928 2.464-133.792-3.68-6.336-7.104-11.968-10.272-17.184-15.52-25.472-21.344-35.008-19.488-66.656 0.576-9.568 1.952-19.296 3.232-29.024 5.088-37.408 11.424-83.968-24.896-127.488-24.832-29.792-28.192-46.496-30.432-57.536-1.056-5.28-2.176-10.752-4.928-16.256-30.528-60.704-86.304-93.696-157.536-93.696v0zM117.76 509.792c-23.232 0-42.176-18.656-42.176-41.6v-405.952c0-22.976 18.944-41.632 42.176-41.632h110.496v489.184h-110.496z" />
<glyph unicode="&#xe9cb;" glyph-name="phone-a" d="M256-64h512c26.464 0 48 21.536 48 48v928c0 26.464-21.536 48-48 48h-512c-26.464 0-48-21.536-48-48v-928c0-26.464 21.536-48 48-48zM240 912c0 8.837 7.163 16 16 16v0h512c8.837 0 16-7.163 16-16v0-928c0-8.837-7.163-16-16-16v0h-512c-8.837 0-16 7.163-16 16v0 928zM288 96h448c8.837 0 16 7.163 16 16v0 672c0 8.837-7.163 16-16 16v0h-448c-8.837 0-16-7.163-16-16v0-672c0-8.837 7.163-16 16-16v0zM304 768h416v-640h-416v640zM496 32c0-17.673 14.327-32 32-32s32 14.327 32 32v0c0 17.673-14.327 32-32 32s-32-14.327-32-32v0zM448 832h128c8.837 0 16 7.163 16 16s-7.163 16-16 16v0h-128c-8.837 0-16-7.163-16-16s7.163-16 16-16v0z" />
<glyph unicode="&#xea1b;" glyph-name="search-a" d="M426.667 234.667c-174.933 0-320 145.067-320 320s145.067 320 320 320c174.933 0 320-145.067 320-320s-145.067-320-320-320v0zM426.667 832c-153.6 0-277.333-128-277.333-277.333s123.733-277.333 277.333-277.333c153.6 0 277.333 123.733 277.333 277.333s-123.733 277.333-277.333 277.333v0zM896 17.067c-4.267 0-12.8 4.267-17.067 8.533l-264.533 294.4c-8.533 8.533-8.533 21.333 0 29.867s21.333 8.533 29.867 0l268.8-294.4c8.533-8.533 8.533-21.333 0-29.867-4.267-8.533-12.8-8.533-17.067-8.533v0z" />
<glyph unicode="&#xea1d;" glyph-name="anviz-logo" horiz-adv-x="3499" d="M2343.822 655.644h162.133v-489.244h-162.133v489.244zM475.022 593.067c-201.956-429.511 0 0-201.956-429.511h-216.178c238.933 494.933 0 0 238.933 494.933 31.289 65.422 102.4 73.956 179.2 73.956s147.911-8.533 179.2-73.956c238.933-494.933 0 0 238.933-494.933h-216.178c-201.956 429.511 0 0-201.956 429.511v0zM1888.711 163.556c-34.133 0-62.578 25.6-82.489 65.422-210.489 455.111 0 0-196.267 426.667h187.733l167.822-361.244 167.822 361.244h187.733c-196.267-426.667 14.222 28.444-196.267-426.667-17.067-39.822-48.356-65.422-82.489-65.422h-153.6zM1132.089 482.133c-11.378 19.911-19.911 36.978-45.511 34.133v-352.711h-173.511v395.378c0 28.444 2.844 48.356 11.378 65.422 11.378 17.067 25.6 31.289 56.889 34.133h207.644c54.044-2.844 68.267-34.133 82.489-68.267 36.978-79.644 62.578-170.667 102.4-250.311 11.378-19.911 19.911-36.978 45.511-34.133v352.711h173.511v-392.533c0-28.444-2.844-48.356-11.378-65.422-11.378-17.067-25.6-31.289-56.889-34.133h-207.644c-54.044 2.844-68.267 34.133-82.489 68.267-36.978 79.644-59.733 167.822-102.4 247.467v0zM2904.178 496.356c25.6 8.533 42.667 14.222 39.822 31.289h-406.756v125.156h455.111c54.044 0 110.933-8.533 113.778-48.356v-133.689c-2.844-39.822-39.822-59.733-79.644-68.267-93.867-25.6-199.111-54.044-287.289-82.489-25.6-8.533-42.667-14.222-39.822-31.289h406.756v-125.156h-455.111c-54.044 0-110.933 8.533-113.778 48.356v133.689c2.844 39.822 39.822 59.733 79.644 68.267 93.867 25.6 193.422 54.044 287.289 82.489v0zM3328 610.133c-85.333 0-153.6 68.267-153.6 153.6s68.267 153.6 153.6 153.6c85.333 0 153.6-68.267 153.6-153.6s-68.267-153.6-153.6-153.6v0zM3328 894.578c-73.956 0-130.844-59.733-130.844-130.844s59.733-130.844 130.844-130.844c71.111 0 130.844 59.733 130.844 130.844s-56.889 130.844-130.844 130.844v0zM3299.556 743.822v-68.267h-19.911v162.133h39.822c19.911 0 34.133-2.844 42.667-11.378s14.222-19.911 14.222-34.133c0-5.689 0-11.378-2.844-17.067s-2.844-8.533-8.533-11.378c-5.689-2.844-5.689-5.689-11.378-8.533s-8.533-2.844-11.378-5.689l45.511-73.956h-25.6l-39.822 68.267h-22.756zM3299.556 760.889h17.067c5.689 0 11.378 0 17.067 2.844s8.533 2.844 11.378 5.689c2.844 2.844 5.689 5.689 5.689 8.533s2.844 8.533 2.844 14.222c0 5.689 0 8.533-2.844 14.222s-2.844 5.689-5.689 8.533-5.689 2.844-11.378 5.689c-5.689 2.844-11.378 2.844-17.067 2.844h-17.067v-62.578z" />
</font>
</defs>
</svg>
